<svg width="120" height="60" viewBox="0 0 120 60" fill="none" xmlns="http://www.w3.org/2000/svg">
<path d="M39.8763 42V13.5673H41.1342V18.0398C41.2827 17.8415 41.4199 17.6308 41.5448 17.4093C42.5954 14.7369 44.8114 13.0503 47.2306 13.0836C50.0987 12.9788 52.4294 14.2804 53.799 17.4093C54.6706 19.3531 55.1502 21.5244 55.1978 23.7417C55.2454 25.9591 54.8597 28.1583 54.0727 30.1556C52.7967 33.662 49.6448 35.4054 46.2706 34.7651C45.2205 34.6556 44.2094 34.2254 43.3298 33.5138C42.4501 32.8021 41.7299 31.8317 41.2348 30.6911V41.9988L39.8763 42ZM41.1342 23.6252L41.416 26.9638C41.9131 30.7639 43.7456 33.0094 46.6228 33.4313C47.9739 33.7037 49.3603 33.3931 50.5455 32.5526C51.7308 31.7121 52.6416 30.3936 53.1228 28.8219C54.2418 25.5523 54.1593 21.851 52.9014 18.6579C52.3879 17.249 51.5143 16.0833 50.4126 15.337C49.3109 14.5907 48.0411 14.3042 46.7949 14.521C45.6251 14.6253 44.5109 15.1737 43.607 16.09C42.7032 17.0062 42.0545 18.2449 41.7511 19.6338C41.4832 20.9483 41.2772 22.2805 41.1342 23.6239V23.6252ZM80.8828 27.4894C80.692 29.4913 79.9147 31.3401 78.6954 32.6921C77.476 34.044 75.8977 34.8069 74.254 34.8391C68.9787 35.1648 66.5031 30.87 66.1096 25.9138C65.836 23.2224 66.1924 20.4911 67.1371 18.0386C67.7946 16.3561 68.872 14.9741 70.2131 14.0925C71.5541 13.211 73.0893 12.8758 74.5961 13.1355C76.0286 13.2847 77.3866 13.9826 78.4778 15.1302C79.569 16.2778 80.3381 17.8171 80.6765 19.5302C80.9444 21.0907 81.1417 22.6683 81.2672 24.2556H67.4128C67.1562 28.7491 69.1256 32.3616 71.9172 33.2327C75.3942 34.2814 78.3659 32.4344 79.4447 28.3814C79.6842 27.3413 80.121 27.1945 80.8918 27.4894H80.8828ZM67.4028 22.817H79.7949C79.7174 18.0299 77.2861 14.5506 73.9883 14.5111C70.2648 14.4371 67.5648 17.777 67.4028 22.817ZM83.4439 27.5943H84.6586C84.7032 28.6914 84.9938 29.7521 85.4984 30.6599C86.003 31.5676 86.702 32.2871 87.5186 32.7392C88.5439 33.3049 89.6601 33.5798 90.7841 33.5435C91.9081 33.5072 93.0109 33.1606 94.0105 32.5294C94.5554 32.2286 95.0119 31.73 95.3182 31.1009C95.6245 30.4719 95.7659 29.7427 95.7233 29.0119C95.7547 28.3071 95.5977 27.609 95.2763 27.0234C94.9549 26.4379 94.4864 25.9968 93.9421 25.767C92.6057 25.1575 91.1847 24.8219 89.8231 24.2865C88.4063 23.7919 87.0209 23.1709 85.678 22.4284C83.4842 21.1156 83.3483 16.0028 85.832 14.3841C87.1037 13.5043 88.5349 13.0289 89.9949 13.0013C91.455 12.9737 92.8974 13.3948 94.1907 14.2261C95.7948 15.3119 96.6814 17.5043 96.4177 19.7288H95.3761C95.3761 19.6672 95.2815 19.6129 95.2815 19.5499C95.1527 15.4784 92.3611 14.2052 89.3642 14.563C88.4585 14.6863 87.6001 15.0219 86.795 15.5179C86.3111 15.7889 85.9078 16.2376 85.6409 16.8019C85.3741 17.3662 85.2569 18.0182 85.3056 18.6678C85.3067 19.3178 85.4719 19.9515 85.7786 20.4817C86.0853 21.012 86.5184 21.4127 87.0184 21.6289C88.3267 22.2174 89.7154 22.5949 91.069 23.0564L94.3396 24.1051C95.083 24.4043 95.7348 24.973 96.2088 25.7361C96.6828 26.4993 96.9567 27.4208 96.9943 28.379C97.256 30.5319 96.3603 32.6479 94.7764 33.6287C91.9163 35.6127 87.2056 35.0883 85.1074 32.58C84.0336 31.2562 83.4348 29.4585 83.4469 27.593L83.4439 27.5943ZM112.406 19.7301H111.267C111.267 19.5413 111.207 19.3599 111.19 19.2156C111.172 18.1687 110.86 17.1613 110.308 16.3622C109.756 15.5632 108.997 15.0212 108.158 14.827C106.574 14.2703 104.886 14.37 103.353 15.1108C102.748 15.3233 102.214 15.7706 101.833 16.3858C101.452 17.0009 101.243 17.7508 101.238 18.5234C101.216 19.282 101.409 20.0265 101.784 20.6311C102.158 21.2356 102.691 21.663 103.293 21.8411L108.5 23.4796C109.063 23.6451 109.617 23.852 110.16 24.0989C111.821 24.8392 112.948 26.7294 112.998 28.8897C113.023 29.9472 112.787 30.9892 112.32 31.8788C111.853 32.7684 111.177 33.464 110.382 33.8743C109.173 34.5473 107.863 34.9034 106.536 34.9197C105.209 34.9361 103.893 34.6124 102.674 33.9693C101.671 33.4392 100.825 32.5451 100.249 31.4076C99.6737 30.27 99.3961 28.9435 99.4538 27.6066H100.567C100.985 30.0803 102.371 32.1408 104.272 33.1155C106.173 34.0902 108.344 33.8508 110.073 32.4788C110.592 32.1481 111.022 31.6421 111.314 31.0207C111.605 30.3992 111.745 29.6884 111.717 28.9724C111.743 28.2671 111.58 27.5708 111.254 26.989C110.928 26.4072 110.456 25.9717 109.91 25.7485C108.573 25.139 107.152 24.8145 105.791 24.268C104.366 23.781 102.972 23.167 101.62 22.4308C99.479 21.1391 99.3079 16.0682 101.749 14.4507C103.037 13.534 104.496 13.0415 105.985 13.0211C107.473 13.0008 108.941 13.4534 110.245 14.3347C110.991 14.8804 111.591 15.6801 111.972 16.6365C112.354 17.5929 112.501 18.6647 112.394 19.7214L112.406 19.7301ZM37.8062 34.3258C37.3578 34.5337 36.8628 34.5332 36.4147 34.3243C35.9666 34.1154 35.5964 33.7126 35.3739 33.192L30.946 25.6844L30.3039 24.6356L25.1655 33.2031C24.9561 33.7013 24.6059 34.0891 24.1803 34.2939C23.7547 34.4987 23.2829 34.5065 22.8529 34.316L29.4727 23.4277L23.3138 13.5895C24.2276 13.1848 25.246 13.624 25.7542 14.6382L30.3432 22.2384L34.9593 14.6678C35.1702 14.1781 35.5207 13.8006 35.9439 13.607C36.3672 13.4134 36.8337 13.4173 37.2547 13.6179L34.8647 17.5056L31.6273 22.6714C31.5374 22.7698 31.4655 22.8903 31.4163 23.0251C31.3671 23.1599 31.3416 23.306 31.3416 23.4537C31.3416 23.6014 31.3671 23.7474 31.4163 23.8822C31.4655 24.017 31.5374 24.1375 31.6273 24.2359L37.7931 34.3258H37.8062ZM65.9134 13.4846V14.9652C65.0472 14.8955 64.1787 15.0493 63.364 15.4166C62.5493 15.7839 61.8065 16.3566 61.1835 17.0976C60.5604 17.8387 60.0711 18.7316 59.7469 19.7189C59.4228 20.7062 59.2712 21.7658 59.3017 22.8294C59.3017 26.2873 59.3017 29.7452 59.3017 33.2031V34.3789H58.077V13.5772H59.2846V17.8399C60.7659 14.7308 63.0524 13.5772 65.9214 13.4933L65.9134 13.4846ZM7.00201 23.292L7.54141 20.0262C9.02275 13.5685 15.0608 10.8813 19.215 14.8813C21.6473 17.223 22.2542 20.5407 22.1354 24.2791H8.43203C8.21063 30.9563 12.1404 34.9884 17.1671 32.9304C18.8235 32.1901 20.0704 30.5023 20.481 28.4049C20.7467 27.3561 21.1854 27.176 21.9885 27.4795C21.8546 28.7579 21.4859 29.9824 20.9104 31.0609C20.3348 32.1395 19.5673 33.044 18.6655 33.7065C17.1757 34.7054 15.4664 35.1012 13.782 34.8373C12.0976 34.5733 10.5245 33.6632 9.28742 32.237C8.06371 30.5504 7.32505 28.4184 7.18114 26.1668C7.18114 25.7966 7.08051 25.4512 7.01006 25.118C7.00335 24.4954 7 23.8867 7 23.292H7.00201ZM8.44914 22.8405H20.8413C20.7638 18.0003 18.2721 14.5667 14.9491 14.5346C11.2498 14.4729 8.60311 17.8313 8.44008 22.8195L8.44914 22.8405Z" fill="#474D4F"/>
</svg>
