<svg width="63" height="93" viewBox="0 0 63 93" fill="none" xmlns="http://www.w3.org/2000/svg">
<path d="M15.4347 0H30.8076V30.1397H15.4347C-4.838 29.3628 -5.04271 0.81592 15.4347 0ZM15.4347 61.5684H30.8076V31.4287H15.4347C-5.04271 32.2446 -4.838 60.7915 15.4347 61.5684ZM47.4956 0H32.1226V30.1397H47.4956C68.0414 29.0618 67.7855 0.615239 47.4956 0ZM30.8076 77.9274V62.8575H15.4347C2.89009 62.8575 -5.04271 77.2754 3.68179 87.6311C12 97.8953 30.8076 92.778 30.8076 77.9274ZM62.8999 46.4986C62.8999 34.9173 50.0224 27.6397 39.7761 33.4303C29.5298 39.221 29.5298 53.7762 39.7761 59.5669C50.0224 65.3575 62.8999 58.0799 62.8999 46.4986Z" fill="#474D4F"/>
</svg>
