<svg width="71" height="101" viewBox="0 0 71 101" fill="none" xmlns="http://www.w3.org/2000/svg">
<g filter="url(#filter0_d)">
<path d="M4 18.2765L9.65145 85.5299L35.0117 93L60.4423 85.5196L66.1 18.2765H4ZM54.3118 34.2371L53.9577 38.4185L53.8018 40.2724H53.7773H35.0504H35.0231H24.0518L24.7624 48.7185H35.0229H35.0502H50.9994H53.0945L52.9045 50.9335L51.0777 72.649L50.9609 74.0425L35.0504 78.7217L35.0144 78.7336L19.0892 74.043L18.0002 61.0921H21.5973H25.8043L26.3579 67.6702L35.0161 70.1507L35.0233 70.1489L43.6939 67.6648L44.5964 56.9672H35.0504H35.0231H17.6526L15.7419 34.2371L15.5558 32.0241H35.0233H35.0506H54.4981L54.3118 34.2371ZM9.77779 0H13.7285V4.14113H17.3426V0H21.2935V12.5413H17.3426V8.34149H13.7287V12.5413H9.77798L9.77779 0ZM26.4888 4.15892H23.011V0H33.92V4.15892H30.4401V12.5413H26.4892L26.4888 4.15892ZM35.6516 0H39.771L42.305 4.40638L44.8363 0H48.958V12.5413H45.023V6.32501L42.3051 10.7842H42.2369L39.5172 6.32501V12.541H35.6514L35.6516 0ZM50.9239 0H54.8762V8.39568H60.4316V12.5408H50.9241L50.9239 0Z" fill="#474D4F"/>
</g>
<defs>
<filter id="filter0_d" x="0" y="0" width="70.1" height="101" filterUnits="userSpaceOnUse" color-interpolation-filters="sRGB">
<feFlood flood-opacity="0" result="BackgroundImageFix"/>
<feColorMatrix in="SourceAlpha" type="matrix" values="0 0 0 0 0 0 0 0 0 0 0 0 0 0 0 0 0 0 127 0"/>
<feOffset dy="4"/>
<feGaussianBlur stdDeviation="2"/>
<feColorMatrix type="matrix" values="0 0 0 0 0 0 0 0 0 0 0 0 0 0 0 0 0 0 0.25 0"/>
<feBlend mode="normal" in2="BackgroundImageFix" result="effect1_dropShadow"/>
<feBlend mode="normal" in="SourceGraphic" in2="effect1_dropShadow" result="shape"/>
</filter>
</defs>
</svg>
