<svg width="63" height="93" viewBox="0 0 63 93" fill="none" xmlns="http://www.w3.org/2000/svg">
<path d="M0 18.2765L5.65145 85.5299L31.0117 93L56.4423 85.5196L62.1 18.2765H0ZM50.3118 34.2371L49.9577 38.4185L49.8018 40.2724H49.7773H31.0504H31.0231H20.0518L20.7624 48.7185H31.0229H31.0502H46.9994H49.0945L48.9045 50.9335L47.0777 72.649L46.9609 74.0425L31.0504 78.7217L31.0144 78.7336L15.0892 74.043L14.0002 61.0921H17.5973H21.8043L22.3579 67.6702L31.0161 70.1507L31.0233 70.1489L39.6939 67.6648L40.5964 56.9672H31.0504H31.0231H13.6526L11.7419 34.2371L11.5558 32.0241H31.0233H31.0506H50.4981L50.3118 34.2371ZM5.77779 0H9.72854V4.14113H13.3426V0H17.2935V12.5413H13.3426V8.34149H9.72873V12.5413H5.77798L5.77779 0ZM22.4888 4.15892H19.011V0H29.92V4.15892H26.4401V12.5413H22.4892L22.4888 4.15892ZM31.6516 0H35.771L38.305 4.40638L40.8363 0H44.958V12.5413H41.023V6.32501L38.3051 10.7842H38.2369L35.5172 6.32501V12.541H31.6514L31.6516 0ZM46.9239 0H50.8762V8.39568H56.4316V12.5408H46.9241L46.9239 0Z" fill="#474D4F"/>
</svg>
