<svg width="63" height="95" viewBox="0 0 63 95" fill="none" xmlns="http://www.w3.org/2000/svg">
<path d="M6.2515 86.9683L0.599976 18.6009H62.7L57.0426 86.9573L31.612 94.5614L6.2515 86.9683Z" fill="#474D4F"/>
<path d="M31.5859 71.245L31.5521 71.2555L22.8938 68.7334L22.3399 62.0464H18.1331H14.5361L15.6253 75.2118L31.55 79.9801L31.5859 79.9691V71.245Z" fill="#EBEBEB"/>
<path d="M32.6331 57.8497V49.4649H23.06L24.1826 36.3053L32.6546 36.0619L32.6331 27.3426H17.1537L16.5788 33.5233L14.7516 55.5982L14.562 57.8497H16.6571H32.6331Z" fill="#EBEBEB"/>
<path d="M32.5804 36.0736L32.6145 36.0633L41.1055 36.6147L41.826 45.2719H46.033H49.6302L48.2703 29.0717L32.6164 27.3387L32.5804 27.3495V36.0736Z" fill="white"/>
<path d="M48.8287 36.0993L48.1625 27.3426H31.7522V32.7809V36.0775V36.0993H48.8287Z" fill="white"/>
<path d="M31.5591 49.4689V57.8535H41.1322L40.2299 68.7278L31.5591 71.2524V79.976L47.4969 75.2118L47.6136 73.7953L49.4408 51.7204L49.6304 49.4689H47.5353H31.5591Z" fill="white"/>
<path d="M42.5991 3.50054H37.4447L42.8052 9.77386V12.7597H31.7645V9.26362H37.1238L31.7645 2.99052V0H42.5991V3.50054Z" fill="#474D4F"/>
<path d="M29.7983 0.00588226V12.7545H20.29V8.54061H25.8462V0.00588226H29.7983Z" fill="#474D4F"/>
</svg>
