<svg width="63" height="93" viewBox="0 0 63 93" fill="none" xmlns="http://www.w3.org/2000/svg">
<path fill-rule="evenodd" clip-rule="evenodd" d="M40.5528 23.7696C39.2367 17.5789 37.1256 12.0998 34.1507 7.38492C33.3987 6.19228 32.5627 5.09966 32.0381 3.61611C31.7065 2.67696 31.3906 1.72483 31.0677 0.77957L30.8625 0L30.8054 0.306941C30.7786 1.84928 30.2004 2.89456 29.4807 3.87113C28.67 4.96909 27.9159 6.16173 27.1376 7.31391L24.7439 12.07L22.8087 17.4468L21.5143 22.7266L21.4754 22.8083C20.7633 26.3428 20.412 29.9772 20.2397 33.6467C20.1745 35.0264 20.2493 36.4252 20.3003 37.8118C20.3736 39.794 20.6015 41.7417 20.9432 43.6605C22.185 50.6285 24.7055 56.4077 28.1519 61.3188C28.7918 62.2312 29.4837 63.0612 30.1514 63.9286L30.447 65.4617L30.722 67.8409L30.8534 70.3247C30.8519 70.8286 30.8382 71.3349 30.8579 71.8373C30.8635 71.9663 30.9747 72.0854 31.0374 72.2091L31.5953 72.5054L32.1761 72.8467L32.0765 70.6393L32.0719 68.4647L32.2726 65.1525L32.4182 64.4317L32.8351 63.3162C33.3496 62.6916 33.901 62.1236 34.3696 61.428C35.2171 60.1704 36.0632 58.8953 36.8218 57.5172C37.8059 55.7297 38.653 53.7789 39.3332 51.6868C39.7876 50.2872 40.2162 48.8594 40.5705 47.3973C40.8829 46.1084 41.0764 44.7531 41.3226 43.4269L41.3873 43.1405C41.8952 39.5611 41.9806 35.945 41.7941 32.306C41.644 29.3732 41.1876 26.5428 40.5528 23.7696ZM30.4951 62.1564C30.5729 61.5677 30.6694 60.9821 30.7397 60.3911C30.6694 60.9821 30.5734 61.5677 30.4951 62.1564ZM32.2221 62.5626L31.8956 61.4822L32.2221 62.5626L32.7017 63.1818L32.2221 62.5626ZM52.5165 76.2505C52.099 75.0418 51.4865 74.1241 50.6768 73.5216C49.9985 73.0177 49.2692 72.7963 48.5192 72.7642C47.9572 72.7398 47.3931 72.7833 46.8301 72.794C46.3302 72.8031 45.8299 72.8161 45.33 72.8092C44.7422 72.8001 44.1544 72.7734 43.5666 72.7482C43.4691 72.7436 43.3998 72.7734 43.3543 72.923C43.2831 73.1559 43.1987 73.3804 43.1112 73.6354L43.2093 73.6827C43.5009 73.7606 43.794 73.827 44.0842 73.9148C44.4571 74.0271 44.6249 74.3508 44.6421 74.8257C44.6674 75.5022 44.6775 76.1803 44.676 76.8583C44.6684 79.5413 44.6558 82.2244 44.6426 84.9067C44.6416 85.0838 44.6396 85.2686 44.6078 85.4351C44.5709 85.6275 44.5309 85.8764 44.4359 85.9711C44.2717 86.136 44.068 86.2475 43.8724 86.2956C43.5888 86.3658 43.5413 86.3849 43.4529 86.8064L43.4145 87.0171C43.372 87.2469 43.3948 87.292 43.5535 87.2943C44.4642 87.3096 45.3745 87.3393 46.2847 87.3348C47.1151 87.3302 47.9455 87.4065 48.7729 87.1706C49.5548 86.9484 50.2846 86.559 50.9507 85.9001C51.815 85.0441 52.4366 83.9004 52.7647 82.4077C53.0295 81.202 53.0886 79.972 52.9987 78.7114C52.9375 77.8417 52.7829 77.0224 52.5165 76.2505ZM50.9209 83.627C50.4337 84.9968 49.7069 85.9115 48.6683 86.1528C48.0178 86.3032 47.3663 86.2597 46.7462 85.8878C46.3535 85.6527 46.2074 85.1404 46.1953 84.5349C46.1837 83.9416 46.1791 83.3476 46.1786 82.7543C46.1766 80.6668 46.1766 78.5793 46.1786 76.4925C46.1796 75.8351 46.1872 75.1762 46.1943 74.518C46.1993 74.0553 46.2635 73.9003 46.5622 73.8629C47.8743 73.6965 49.1262 73.9103 50.1658 75.3052C50.8087 76.168 51.1746 77.2683 51.3268 78.532C51.3899 79.0588 51.4091 79.5978 51.4486 80.1323C51.4167 81.3524 51.3076 82.5397 50.9209 83.627ZM61.9334 81.3662C61.6746 80.4148 61.1844 79.8185 60.5683 79.4367C60.358 79.3062 60.1412 79.1985 59.9143 79.0718L59.9936 78.9954C60.2387 78.7579 60.5117 78.5663 60.7229 78.2739C61.2364 77.563 61.4497 76.6689 61.3496 75.6068C61.2546 74.5967 60.9211 73.8553 60.3252 73.3743C59.7844 72.939 59.2011 72.7802 58.5977 72.781C57.5535 72.7825 56.5088 72.8062 55.4646 72.8092C55.1047 72.81 54.7449 72.7695 54.385 72.7619C54.3153 72.7604 54.2117 72.7871 54.1818 72.8573C54.0995 73.0482 54.0449 73.2681 53.9863 73.4804C53.9524 73.6041 53.9857 73.672 54.0793 73.6904C54.3304 73.7423 54.5811 73.8072 54.8328 73.8637C55.1805 73.9423 55.3489 74.2157 55.3701 74.7448L55.3746 75.0586C55.3751 76.704 55.3787 78.3495 55.3741 79.9949C55.3686 81.6372 55.3564 83.2811 55.3433 84.9243C55.3418 85.1312 55.3231 85.3389 55.3034 85.5443C55.2735 85.8543 55.1639 86.068 54.9536 86.1352L54.3587 86.3124C54.2885 86.3338 54.1869 86.3307 54.1581 86.3964C54.0489 86.643 53.961 86.9125 53.9731 87.2378L54.0343 87.263L56.0322 87.337L56.433 87.3348C57.1244 87.3225 57.8168 87.3431 58.5072 87.2897C59.2547 87.2332 59.9567 86.898 60.6057 86.3215C61.2966 85.7069 61.8283 84.8968 62.0173 83.6782C62.1386 82.9001 62.1391 82.1175 61.9334 81.3662ZM56.8575 74.3562C56.8605 74.0256 56.9571 73.882 57.1744 73.8736C57.7096 73.8515 58.2413 73.8561 58.7579 74.1347C59.426 74.4951 59.8369 75.3656 59.8294 76.4292C59.8258 76.8377 59.8299 77.2423 59.7303 77.6348C59.5337 78.4075 59.1567 78.8152 58.6219 78.8946C58.3429 78.9374 58.0614 78.942 57.8128 78.9618L56.9829 78.9068C56.8727 78.9007 56.8247 78.8274 56.8252 78.6564L56.8575 74.3562ZM60.2974 84.6593C60.03 85.5381 59.5428 86.0001 58.9328 86.1604C58.445 86.2887 57.9533 86.2513 57.4711 86.0635C57.1143 85.9253 56.9687 85.4923 56.8974 85.0121C56.8494 84.6906 56.8575 84.3081 56.8535 83.9737C56.8469 83.4575 56.852 82.3863 56.852 82.3863H56.8449C56.8449 81.6227 56.8464 80.9615 56.8434 80.2293C56.8429 80.0712 56.8605 79.9926 56.9884 79.9987C57.4423 80.0193 57.8977 80.0308 58.3515 80.0575C58.7574 80.0812 59.1374 80.2629 59.4948 80.5538C60.0386 80.9966 60.3661 81.6747 60.4561 82.6062C60.5248 83.3124 60.4955 84.0073 60.2974 84.6593ZM10.47 85.4824L10.4796 81.3311C10.4811 80.7065 10.4285 80.0941 10.2931 79.5016C9.91959 77.87 8.88955 77.127 7.81706 77.7127C7.32934 77.9791 6.89215 78.3831 6.47468 78.8412C6.23158 79.1084 6.23158 79.1084 6.05569 78.7274C5.55786 77.6493 4.84674 77.2805 4.01887 77.6783C3.48363 77.9349 3.01562 78.3739 2.57237 78.8839C2.53092 78.9313 2.44753 78.984 2.42277 78.9557C2.38132 78.9091 2.35251 78.7984 2.35352 78.7152L2.38385 77.9776C2.38637 77.8226 2.36666 77.6669 2.35656 77.5042C2.15641 77.6088 1.9967 77.7134 1.82941 77.7745C1.31237 77.9654 0.79179 78.141 0.271717 78.3204C0.145869 78.364 0.0129445 78.4212 0.000814519 78.6396C-0.0118209 78.8542 0.125147 78.89 0.231284 78.9542C0.454677 79.0901 0.676555 79.2344 0.897421 79.381C1.08291 79.5047 1.15215 79.7284 1.15114 80.0292C1.1476 81.3158 1.15316 82.6008 1.14811 83.8874C1.14609 84.4104 1.12991 84.9327 1.11424 85.4557C1.10009 85.9192 0.995472 86.1131 0.698288 86.2299C0.540598 86.2925 0.380381 86.3345 0.221681 86.391C0.186807 86.4032 0.127168 86.4368 0.126663 86.4628C0.120092 86.6896 0.112006 86.9217 0.137277 87.1423C0.142331 87.182 0.301031 87.182 0.388973 87.1973L0.448107 87.192C1.06067 87.1782 1.67323 87.1637 2.2863 87.1538C2.61128 87.1485 2.93576 87.153 3.28854 87.153L3.32645 86.4124C3.12428 86.3567 2.94385 86.3147 2.76594 86.2559C2.48847 86.1643 2.3702 85.9421 2.36313 85.5191L2.35807 84.9136C2.35504 83.343 2.351 81.7732 2.351 80.2026C2.351 79.9743 2.41367 79.7933 2.54659 79.6566C2.82811 79.3696 3.12529 79.1413 3.45432 79.0137C4.14775 78.7457 4.74919 79.1183 5.01605 80.0094C5.10046 80.2904 5.16667 80.6011 5.18537 80.9065C5.28342 82.4809 5.24096 84.0569 5.18183 85.6313C5.16919 85.9711 5.06356 86.1421 4.84168 86.2253L4.32009 86.3918C4.27815 86.4078 4.21699 86.3651 4.21396 86.4177C4.20233 86.6354 4.2089 86.969 4.2089 86.969H4.33324L5.92125 87.0477C6.35641 87.0461 6.79208 87.1255 7.22674 87.1423C7.30457 87.1446 7.37381 87.1622 7.37836 87.0263C7.38544 86.811 7.37937 86.6086 7.3728 86.3933L7.28992 86.3712L6.84262 86.2192C6.54089 86.1116 6.43677 85.9382 6.43576 85.4771C6.43223 84.3402 6.44233 83.204 6.43576 82.0679C6.43223 81.4181 6.41555 80.7683 6.38775 80.1201C6.38017 79.9475 6.39786 79.8345 6.48883 79.7376C6.7567 79.449 7.0463 79.2268 7.36421 79.1C8.34219 78.7106 9.14277 79.5207 9.19331 81.044C9.24284 82.513 9.22212 83.9874 9.21454 85.4595C9.21201 85.9718 9.09981 86.1268 8.76573 86.2643L8.65049 86.3093C8.30833 86.433 8.31136 86.433 8.33158 86.982C8.33815 87.1538 8.36948 87.1981 8.49078 87.1935C9.18775 87.1698 9.88472 87.1637 10.5817 87.1546C10.8667 87.1507 11.1518 87.1546 11.4621 87.1546L11.5253 86.4399C11.2529 86.3307 11.0017 86.2498 10.7591 86.1299C10.5448 86.0199 10.469 85.8245 10.47 85.4824ZM34.4717 79.1901C34.7587 78.7877 34.7608 78.2563 34.6804 77.6661C34.453 78.0257 34.1982 78.1914 33.9076 78.2227C33.5179 78.2647 33.1353 78.2136 32.7724 77.9791C31.7909 77.3424 30.8246 77.3874 29.8613 78.086C29.0511 78.6724 28.5527 79.5864 28.5027 80.9722C28.4709 81.8602 28.581 82.7009 28.9732 83.4071C29.2083 83.8301 29.51 84.1042 29.8501 84.2936C29.9967 84.3753 30.0078 84.4807 29.885 84.6219C29.7951 84.7265 29.6995 84.8212 29.6035 84.9121C29.3983 85.1068 29.1916 85.2992 28.9839 85.4878C28.8621 85.5992 28.8206 85.7413 28.8605 85.9589C28.9773 86.5987 29.278 86.9683 29.654 87.2378L29.791 87.3821L29.6712 87.563C29.3028 88.0143 28.9197 88.4404 28.5669 88.9191C28.2707 89.3215 28.1752 89.8605 28.2647 90.4553C28.4451 91.6426 28.9662 92.3771 29.7056 92.7146C30.9979 93.3056 32.2114 92.9666 33.3178 91.8098C33.9738 91.1234 34.4444 90.2301 34.5874 89.0008C34.7476 87.6196 34.2397 86.4208 33.3304 86.1734C32.729 86.0085 32.1134 85.9612 31.5049 85.8558C31.2208 85.8069 30.9327 85.7779 30.6563 85.6794C30.4213 85.5954 30.3045 85.306 30.3262 85.0235C30.348 84.7456 30.5436 84.4868 30.7675 84.46C31.2183 84.4051 31.66 84.2989 32.0755 84.0118C33.1763 83.2514 33.6873 81.9198 33.5594 80.127C33.5427 79.8857 33.5063 79.6475 33.4735 79.3665C33.8257 79.4558 34.1861 79.591 34.4717 79.1901ZM31.1314 87.602C31.5792 87.6218 32.0886 87.6638 32.5809 87.8814C33.014 88.0723 33.3704 88.4068 33.4755 89.1375C33.6023 90.0201 33.3213 90.8982 32.7558 91.37C32.2261 91.8114 31.6509 91.848 31.0677 91.7572C30.5683 91.6793 30.119 91.4181 29.7592 90.8608C29.2851 90.127 29.2826 89.1115 29.7571 88.38C30.1812 87.7264 30.4081 87.5913 31.1314 87.602ZM32.2519 82.2863C31.9911 83.5469 31.2319 83.7209 30.6371 83.3178C30.1301 82.975 29.9093 82.3 29.7935 81.5296C29.7486 81.2333 29.7379 80.9256 29.7117 80.6225C29.7223 80.1881 29.7698 79.7712 29.8936 79.3802C30.2732 78.1761 31.2057 78.2479 31.7217 78.7931C31.9431 79.0267 32.0972 79.3444 32.1938 79.7208C32.4081 80.5637 32.4298 81.4227 32.2519 82.2863ZM27.5161 86.3047C27.3367 86.2612 27.1563 86.2047 26.9819 86.1245C26.6746 85.9825 26.6372 85.8955 26.6337 85.4045C26.6246 84.0363 26.6185 82.668 26.6084 81.3005C26.6034 80.6851 26.5548 80.0781 26.43 79.4902C26.1015 77.9402 25.0952 77.1079 24.0884 77.5653C23.5304 77.8196 23.0513 78.2922 22.605 78.8473L22.4423 79.0359L22.4428 78.7831C22.4534 78.4922 22.4741 78.2013 22.4726 77.9104C22.4716 77.7585 22.4332 77.6058 22.4145 77.4722C22.0339 77.6455 21.6927 77.8196 21.3445 77.9524C20.9953 78.0853 20.6389 78.1754 20.2857 78.2838C20.1103 78.3372 19.9814 78.4976 19.9844 78.6801C19.989 78.9374 20.13 78.987 20.2533 79.0641C20.4767 79.2023 20.6996 79.3421 20.9205 79.4902C21.0782 79.5963 21.1423 79.7933 21.1408 80.0491C21.1297 81.8274 21.1226 83.6064 21.1054 85.3854C21.1004 85.9474 21.0064 86.0955 20.6405 86.2192L20.4808 86.2673C20.1421 86.3551 20.1325 86.3757 20.1558 86.9156L20.1578 87.0049C20.1537 87.2126 20.2139 87.2798 20.3554 87.2775C21.255 87.2615 22.1552 87.2538 23.0548 87.2592C23.4405 87.2615 23.4819 87.2156 23.4738 86.617L23.4556 86.3597C23.2353 86.304 23.0245 86.2635 22.8183 86.1948C22.6025 86.1223 22.5252 85.9886 22.5049 85.6573C22.4862 85.3541 22.4802 85.0464 22.4782 84.741C22.468 83.343 22.46 81.945 22.4554 80.5477C22.4544 80.1957 22.4974 79.8689 22.7117 79.6421C23.0366 79.2993 23.3924 79.1008 23.7857 79.0603C24.5883 78.9771 25.1983 79.6956 25.2418 80.9043C25.2953 82.3954 25.2792 83.892 25.2918 85.3862C25.2928 85.4977 25.2797 85.6099 25.2696 85.7206C25.2504 85.939 25.1796 86.1032 25.033 86.1597C24.89 86.2162 24.7449 86.2666 24.5989 86.3002C24.381 86.349 24.3765 86.3467 24.3598 86.6789L24.3654 86.9026C24.3912 87.2889 24.3917 87.2775 24.6504 87.2737C25.5208 87.263 26.3906 87.2561 27.2604 87.2576C27.6243 87.2592 27.6501 87.2332 27.6531 86.6667L27.6521 86.5323C27.6576 86.3872 27.6147 86.3284 27.5161 86.3047ZM39.6724 77.6592C38.7601 77.3225 37.8948 77.573 37.073 78.2151C36.2745 78.8389 35.7408 79.8032 35.5376 81.1348C35.3324 82.481 35.4304 83.7942 35.8242 85.0441C36.0804 85.8558 36.4746 86.4834 37.0114 86.8911C38.2678 87.8471 39.8048 87.4134 40.7904 86.1345C41.5682 85.1258 41.8538 83.7828 41.8709 82.1206C41.8603 81.9541 41.8497 81.6334 41.8204 81.3158C41.6551 79.5062 40.8257 78.0853 39.6724 77.6592ZM40.3633 84.6494C40.1212 86.0894 39.2969 86.7293 38.3669 86.2345C37.8923 85.9825 37.5375 85.5007 37.299 84.8494C36.7501 83.3529 36.6444 81.7617 36.9568 80.1293C37.165 79.042 37.7574 78.4472 38.4619 78.522C39.0917 78.5885 39.5758 79.045 39.9312 79.8193C40.3057 80.6363 40.4502 81.5655 40.4886 82.5413C40.4952 82.6978 40.4896 82.8543 40.4896 83.0116L40.5341 83.0192C40.4785 83.5637 40.4522 84.1187 40.3633 84.6494ZM16.728 77.6356C15.7683 77.3042 14.8691 77.6317 14.0362 78.3686C13.316 79.0053 12.8505 79.9567 12.6721 81.1997C12.5048 82.3611 12.573 83.5026 12.8454 84.615C13.0112 85.2931 13.2624 85.8894 13.6309 86.3544C14.4067 87.3325 15.3134 87.5798 16.2782 87.3073C17.095 87.0759 17.8127 86.5277 18.3343 85.5023C18.8225 84.5433 19.0085 83.4422 19.0277 82.2488C18.9989 81.8709 18.9918 81.4861 18.9387 81.1173C18.6749 79.2764 17.9623 78.0608 16.728 77.6356ZM17.5109 84.6448C17.2769 86.0772 16.4394 86.7331 15.5161 86.2383C14.9232 85.9199 14.5371 85.264 14.293 84.4234C13.9018 83.0727 13.8219 81.667 14.0751 80.2423C14.2692 79.1527 14.854 78.3502 15.7491 78.5426C16.2984 78.6602 16.727 79.084 17.0465 79.7582C17.4781 80.6676 17.6201 81.709 17.6398 82.8032V83.0269L17.6762 83.0353C17.6231 83.5728 17.5969 84.1195 17.5109 84.6448Z" fill="#474D4F"/>
</svg>
