<svg width="71" height="101" viewBox="0 0 71 101" fill="none" xmlns="http://www.w3.org/2000/svg">
<g filter="url(#filter0_d)">
<path fill-rule="evenodd" clip-rule="evenodd" d="M44.5528 23.7696C43.2367 17.5789 41.1256 12.0998 38.1507 7.38492C37.3987 6.19228 36.5627 5.09966 36.0381 3.61611C35.7065 2.67696 35.3906 1.72483 35.0677 0.77957L34.8625 0L34.8054 0.306941C34.7786 1.84928 34.2004 2.89456 33.4807 3.87113C32.67 4.96909 31.9159 6.16173 31.1376 7.31391L28.7439 12.07L26.8087 17.4468L25.5143 22.7266L25.4754 22.8083C24.7633 26.3427 24.412 29.9772 24.2397 33.6467C24.1745 35.0264 24.2493 36.4252 24.3003 37.8118C24.3736 39.794 24.6015 41.7417 24.9432 43.6605C26.185 50.6285 28.7055 56.4077 32.1519 61.3188C32.7918 62.2312 33.4837 63.0612 34.1514 63.9286L34.447 65.4617L34.722 67.8409L34.8534 70.3247C34.8519 70.8286 34.8382 71.3349 34.8579 71.8373C34.8635 71.9663 34.9747 72.0854 35.0374 72.2091L35.5953 72.5054L36.1761 72.8467L36.0765 70.6393L36.0719 68.4647L36.2726 65.1525L36.4182 64.4317L36.8351 63.3162C37.3496 62.6916 37.901 62.1236 38.3696 61.428C39.2171 60.1704 40.0632 58.8953 40.8218 57.5172C41.8059 55.7297 42.653 53.7789 43.3332 51.6868C43.7876 50.2872 44.2162 48.8594 44.5705 47.3973C44.8829 46.1084 45.0764 44.7531 45.3226 43.4269L45.3873 43.1405C45.8952 39.5611 45.9806 35.945 45.7941 32.306C45.644 29.3732 45.1876 26.5428 44.5528 23.7696V23.7696ZM34.4951 62.1564C34.5729 61.5677 34.6694 60.9821 34.7397 60.3911C34.6694 60.9821 34.5734 61.5677 34.4951 62.1564ZM36.2221 62.5626L35.8956 61.4822L36.2221 62.5626L36.7017 63.1818L36.2221 62.5626ZM56.5165 76.2505C56.099 75.0418 55.4865 74.1241 54.6768 73.5216C53.9985 73.0177 53.2692 72.7963 52.5192 72.7642C51.9572 72.7398 51.3931 72.7833 50.8301 72.794C50.3302 72.8031 49.8299 72.8161 49.33 72.8092C48.7422 72.8001 48.1544 72.7734 47.5666 72.7482C47.4691 72.7436 47.3998 72.7734 47.3543 72.923C47.2831 73.1559 47.1987 73.3804 47.1112 73.6354L47.2093 73.6827C47.5009 73.7606 47.794 73.827 48.0842 73.9148C48.4572 74.0271 48.6249 74.3508 48.6421 74.8257C48.6674 75.5022 48.6775 76.1803 48.676 76.8583C48.6684 79.5413 48.6558 82.2244 48.6426 84.9067C48.6416 85.0839 48.6396 85.2686 48.6078 85.4351C48.5709 85.6275 48.5309 85.8764 48.4359 85.9711C48.2717 86.136 48.068 86.2475 47.8724 86.2956C47.5888 86.3658 47.5413 86.3849 47.4529 86.8064L47.4145 87.0171C47.372 87.2469 47.3948 87.292 47.5535 87.2943C48.4642 87.3096 49.3745 87.3393 50.2847 87.3348C51.1151 87.3302 51.9455 87.4065 52.7729 87.1706C53.5548 86.9484 54.2846 86.559 54.9507 85.9001C55.815 85.0441 56.4366 83.9004 56.7647 82.4077C57.0295 81.202 57.0886 79.972 56.9987 78.7114C56.9375 77.8417 56.7829 77.0224 56.5165 76.2505V76.2505ZM54.9209 83.627C54.4337 84.9968 53.7069 85.9115 52.6683 86.1528C52.0178 86.3032 51.3663 86.2597 50.7462 85.8879C50.3535 85.6527 50.2074 85.1404 50.1953 84.5349C50.1837 83.9416 50.1791 83.3476 50.1786 82.7543C50.1766 80.6668 50.1766 78.5793 50.1786 76.4925C50.1796 75.8351 50.1872 75.1762 50.1943 74.518C50.1993 74.0553 50.2635 73.9003 50.5622 73.8629C51.8743 73.6965 53.1262 73.9103 54.1658 75.3052C54.8087 76.168 55.1746 77.2683 55.3268 78.532C55.3899 79.0588 55.4091 79.5978 55.4486 80.1323C55.4167 81.3524 55.3076 82.5397 54.9209 83.627ZM65.9334 81.3662C65.6746 80.4148 65.1844 79.8185 64.5683 79.4367C64.358 79.3062 64.1412 79.1985 63.9143 79.0718L63.9936 78.9954C64.2387 78.758 64.5117 78.5663 64.7229 78.2739C65.2364 77.563 65.4497 76.6689 65.3496 75.6068C65.2546 74.5967 64.9211 73.8553 64.3252 73.3743C63.7844 72.939 63.2011 72.7802 62.5977 72.781C61.5535 72.7825 60.5088 72.8062 59.4646 72.8092C59.1047 72.81 58.7449 72.7695 58.385 72.7619C58.3153 72.7604 58.2117 72.7871 58.1818 72.8573C58.0995 73.0482 58.0449 73.2681 57.9863 73.4804C57.9524 73.6041 57.9857 73.672 58.0792 73.6904C58.3304 73.7423 58.5811 73.8072 58.8328 73.8637C59.1805 73.9423 59.3489 74.2157 59.3701 74.7448L59.3746 75.0586C59.3751 76.704 59.3787 78.3495 59.3741 79.9949C59.3686 81.6372 59.3564 83.2811 59.3433 84.9243C59.3418 85.1312 59.3231 85.3389 59.3034 85.5443C59.2735 85.8543 59.1639 86.068 58.9536 86.1352L58.3587 86.3124C58.2885 86.3338 58.1869 86.3307 58.1581 86.3964C58.0489 86.643 57.961 86.9125 57.9731 87.2378L58.0343 87.263L60.0322 87.337L60.433 87.3348C61.1244 87.3225 61.8168 87.3431 62.5072 87.2897C63.2547 87.2332 63.9567 86.898 64.6057 86.3215C65.2966 85.7069 65.8283 84.8968 66.0173 83.6782C66.1386 82.9001 66.1391 82.1175 65.9334 81.3662V81.3662ZM60.8575 74.3562C60.8606 74.0256 60.9571 73.882 61.1744 73.8736C61.7096 73.8515 62.2413 73.8561 62.7579 74.1347C63.426 74.4951 63.8369 75.3656 63.8294 76.4292C63.8258 76.8377 63.8299 77.2423 63.7303 77.6348C63.5337 78.4075 63.1567 78.8152 62.6219 78.8946C62.3429 78.9374 62.0614 78.942 61.8128 78.9618L60.9829 78.9068C60.8727 78.9007 60.8247 78.8274 60.8252 78.6564L60.8575 74.3562V74.3562ZM64.2974 84.6593C64.03 85.5382 63.5428 86.0001 62.9328 86.1604C62.445 86.2887 61.9533 86.2513 61.4711 86.0635C61.1143 85.9253 60.9687 85.4923 60.8974 85.0121C60.8494 84.6906 60.8575 84.3081 60.8535 83.9737C60.8469 83.4575 60.852 82.3863 60.852 82.3863H60.8449C60.8449 81.6227 60.8464 80.9615 60.8434 80.2293C60.8429 80.0712 60.8605 79.9926 60.9884 79.9987C61.4423 80.0193 61.8977 80.0308 62.3515 80.0575C62.7574 80.0812 63.1374 80.2629 63.4948 80.5538C64.0386 80.9966 64.3661 81.6747 64.4561 82.6062C64.5248 83.3124 64.4955 84.0073 64.2974 84.6593V84.6593ZM14.47 85.4824L14.4796 81.3311C14.4811 80.7065 14.4285 80.0941 14.2931 79.5016C13.9196 77.87 12.8896 77.127 11.8171 77.7127C11.3293 77.9791 10.8922 78.3831 10.4747 78.8412C10.2316 79.1084 10.2316 79.1084 10.0557 78.7274C9.55786 77.6493 8.84674 77.2805 8.01887 77.6783C7.48363 77.9349 7.01562 78.3739 6.57237 78.8839C6.53092 78.9313 6.44753 78.984 6.42276 78.9557C6.38132 78.9091 6.35251 78.7984 6.35352 78.7152L6.38385 77.9776C6.38638 77.8226 6.36666 77.6669 6.35656 77.5042C6.15641 77.6088 5.9967 77.7134 5.82941 77.7745C5.31237 77.9654 4.79179 78.141 4.27172 78.3205C4.14587 78.364 4.01294 78.4212 4.00081 78.6396C3.98818 78.8542 4.12515 78.89 4.23128 78.9542C4.45468 79.0901 4.67655 79.2344 4.89742 79.381C5.08291 79.5047 5.15215 79.7284 5.15114 80.0292C5.1476 81.3158 5.15316 82.6008 5.14811 83.8874C5.14609 84.4104 5.12991 84.9327 5.11424 85.4557C5.10009 85.9192 4.99547 86.1131 4.69829 86.2299C4.5406 86.2925 4.38038 86.3345 4.22168 86.391C4.18681 86.4032 4.12717 86.4368 4.12666 86.4628C4.12009 86.6896 4.11201 86.9217 4.13728 87.1423C4.14233 87.182 4.30103 87.182 4.38897 87.1973L4.44811 87.192C5.06067 87.1782 5.67323 87.1637 6.2863 87.1538C6.61128 87.1485 6.93576 87.153 7.28854 87.153L7.32645 86.4124C7.12428 86.3567 6.94385 86.3147 6.76594 86.2559C6.48847 86.1643 6.3702 85.9421 6.36313 85.5191L6.35807 84.9136C6.35504 83.343 6.351 81.7732 6.351 80.2026C6.351 79.9743 6.41367 79.7933 6.54659 79.6566C6.82811 79.3695 7.12529 79.1412 7.45432 79.0137C8.14775 78.7457 8.74919 79.1183 9.01605 80.0094C9.10046 80.2904 9.16667 80.6011 9.18537 80.9065C9.28342 82.481 9.24096 84.0569 9.18183 85.6313C9.16919 85.9711 9.06356 86.1421 8.84168 86.2253L8.32009 86.3918C8.27815 86.4078 8.21699 86.3651 8.21396 86.4177C8.20233 86.6354 8.2089 86.969 8.2089 86.969H8.33324L9.92125 87.0477C10.3564 87.0461 10.7921 87.1255 11.2267 87.1423C11.3046 87.1446 11.3738 87.1622 11.3784 87.0263C11.3854 86.811 11.3794 86.6086 11.3728 86.3933L11.2899 86.3712L10.8426 86.2192C10.5409 86.1116 10.4368 85.9382 10.4358 85.4771C10.4322 84.3402 10.4423 83.204 10.4358 82.0679C10.4322 81.4181 10.4155 80.7683 10.3877 80.1201C10.3802 79.9475 10.3979 79.8345 10.4888 79.7376C10.7567 79.449 11.0463 79.2268 11.3642 79.1C12.3422 78.7106 13.1428 79.5207 13.1933 81.044C13.2428 82.513 13.2221 83.9874 13.2145 85.4595C13.212 85.9718 13.0998 86.1268 12.7657 86.2643L12.6505 86.3093C12.3083 86.433 12.3114 86.433 12.3316 86.982C12.3381 87.1538 12.3695 87.1981 12.4908 87.1935C13.1877 87.1698 13.8847 87.1637 14.5817 87.1546C14.8667 87.1507 15.1518 87.1546 15.4621 87.1546L15.5253 86.4399C15.2529 86.3307 15.0017 86.2498 14.7591 86.1299C14.5448 86.0199 14.469 85.8245 14.47 85.4824V85.4824ZM38.4717 79.1901C38.7587 78.7877 38.7608 78.2563 38.6804 77.6661C38.453 78.0257 38.1982 78.1914 37.9076 78.2227C37.5179 78.2647 37.1353 78.2136 36.7725 77.9791C35.7909 77.3424 34.8246 77.3874 33.8613 78.086C33.0511 78.6724 32.5527 79.5864 32.5027 80.9722C32.4709 81.8602 32.581 82.7009 32.9732 83.4071C33.2083 83.8301 33.51 84.1042 33.8501 84.2936C33.9967 84.3753 34.0078 84.4807 33.885 84.6219C33.7951 84.7265 33.6995 84.8212 33.6035 84.9121C33.3983 85.1068 33.1916 85.2992 32.9839 85.4878C32.8621 85.5992 32.8206 85.7413 32.8605 85.9589C32.9773 86.5987 33.278 86.9683 33.654 87.2378L33.791 87.3821L33.6712 87.563C33.3028 88.0143 32.9197 88.4404 32.5669 88.9191C32.2707 89.3215 32.1752 89.8605 32.2647 90.4553C32.4451 91.6426 32.9662 92.3771 33.7056 92.7146C34.9979 93.3056 36.2114 92.9666 37.3178 91.8098C37.9738 91.1234 38.4444 90.2301 38.5874 89.0008C38.7476 87.6196 38.2397 86.4208 37.3304 86.1734C36.729 86.0085 36.1134 85.9612 35.5049 85.8558C35.2208 85.8069 34.9327 85.7779 34.6563 85.6794C34.4213 85.5954 34.3045 85.306 34.3262 85.0235C34.348 84.7456 34.5436 84.4868 34.7675 84.46C35.2183 84.4051 35.66 84.2989 36.0755 84.0118C37.1763 83.2514 37.6873 81.9198 37.5594 80.127C37.5427 79.8857 37.5063 79.6475 37.4735 79.3665C37.8257 79.4558 38.1861 79.591 38.4717 79.1901V79.1901ZM35.1314 87.602C35.5792 87.6218 36.0886 87.6638 36.5809 87.8814C37.014 88.0723 37.3704 88.4068 37.4755 89.1375C37.6023 90.0201 37.3213 90.8982 36.7558 91.37C36.2261 91.8114 35.6509 91.848 35.0677 91.7572C34.5683 91.6793 34.119 91.4181 33.7592 90.8608C33.2851 90.127 33.2826 89.1115 33.7571 88.38C34.1812 87.7264 34.4081 87.5913 35.1314 87.602V87.602ZM36.2519 82.2863C35.9911 83.5469 35.2319 83.7209 34.6371 83.3178C34.1301 82.975 33.9093 82.3 33.7935 81.5296C33.7486 81.2333 33.7379 80.9256 33.7117 80.6225C33.7223 80.1881 33.7698 79.7712 33.8936 79.3802C34.2732 78.1761 35.2057 78.2479 35.7217 78.7931C35.9431 79.0267 36.0972 79.3444 36.1938 79.7208C36.408 80.5637 36.4298 81.4227 36.2519 82.2863ZM31.5161 86.3047C31.3367 86.2612 31.1563 86.2047 30.9819 86.1246C30.6746 85.9825 30.6372 85.8955 30.6337 85.4045C30.6246 84.0363 30.6185 82.668 30.6084 81.3005C30.6034 80.6851 30.5548 80.0781 30.43 79.4902C30.1015 77.9402 29.0952 77.108 28.0884 77.5653C27.5304 77.8196 27.0513 78.2922 26.605 78.8473L26.4423 79.0359L26.4428 78.7832C26.4534 78.4922 26.4741 78.2013 26.4726 77.9104C26.4716 77.7585 26.4332 77.6058 26.4145 77.4722C26.0339 77.6455 25.6927 77.8196 25.3445 77.9524C24.9953 78.0853 24.6389 78.1754 24.2857 78.2838C24.1103 78.3372 23.9814 78.4976 23.9844 78.6801C23.989 78.9374 24.13 78.987 24.2533 79.0641C24.4767 79.2023 24.6996 79.3421 24.9205 79.4902C25.0782 79.5963 25.1423 79.7933 25.1408 80.0491C25.1297 81.8274 25.1226 83.6064 25.1054 85.3854C25.1004 85.9474 25.0064 86.0955 24.6405 86.2192L24.4808 86.2673C24.1421 86.3551 24.1325 86.3758 24.1558 86.9156L24.1578 87.0049C24.1537 87.2126 24.2139 87.2798 24.3554 87.2775C25.255 87.2615 26.1552 87.2538 27.0548 87.2592C27.4405 87.2615 27.4819 87.2156 27.4738 86.617L27.4556 86.3597C27.2353 86.304 27.0245 86.2635 26.8183 86.1948C26.6025 86.1223 26.5252 85.9886 26.5049 85.6573C26.4862 85.3541 26.4802 85.0464 26.4782 84.741C26.468 83.343 26.46 81.945 26.4554 80.5477C26.4544 80.1957 26.4974 79.8689 26.7117 79.6421C27.0366 79.2993 27.3924 79.1008 27.7857 79.0603C28.5883 78.9771 29.1983 79.6956 29.2418 80.9043C29.2953 82.3954 29.2792 83.892 29.2918 85.3862C29.2928 85.4977 29.2797 85.6099 29.2696 85.7206C29.2504 85.939 29.1796 86.1032 29.033 86.1597C28.89 86.2162 28.7449 86.2666 28.5989 86.3002C28.381 86.349 28.3765 86.3467 28.3598 86.6789L28.3654 86.9026C28.3912 87.2889 28.3917 87.2775 28.6504 87.2737C29.5208 87.263 30.3906 87.2561 31.2604 87.2576C31.6243 87.2592 31.6501 87.2332 31.6531 86.6667L31.6521 86.5323C31.6577 86.3872 31.6147 86.3284 31.5161 86.3047V86.3047ZM43.6724 77.6592C42.7601 77.3225 41.8948 77.5729 41.073 78.2151C40.2745 78.8389 39.7408 79.8032 39.5376 81.1348C39.3324 82.481 39.4304 83.7942 39.8241 85.0441C40.0804 85.8558 40.4746 86.4834 41.0114 86.8911C42.2678 87.8471 43.8048 87.4134 44.7904 86.1345C45.5682 85.1258 45.8538 83.7828 45.8709 82.1206C45.8603 81.9541 45.8497 81.6334 45.8204 81.3158C45.6551 79.5062 44.8257 78.0853 43.6724 77.6592V77.6592ZM44.3633 84.6494C44.1212 86.0894 43.2969 86.7293 42.3669 86.2345C41.8923 85.9825 41.5375 85.5007 41.299 84.8494C40.7501 83.3529 40.6444 81.7617 40.9568 80.1293C41.165 79.042 41.7574 78.4472 42.4619 78.522C43.0917 78.5885 43.5758 79.045 43.9312 79.8193C44.3057 80.6363 44.4502 81.5655 44.4886 82.5413C44.4952 82.6978 44.4896 82.8543 44.4896 83.0116L44.5341 83.0192C44.4785 83.5637 44.4522 84.1187 44.3633 84.6494V84.6494ZM20.728 77.6356C19.7683 77.3042 18.8691 77.6317 18.0362 78.3686C17.316 79.0053 16.8505 79.9567 16.6721 81.1997C16.5048 82.3611 16.573 83.5026 16.8454 84.615C17.0112 85.2931 17.2624 85.8894 17.6309 86.3544C18.4067 87.3325 19.3134 87.5798 20.2782 87.3073C21.095 87.0759 21.8127 86.5277 22.3343 85.5023C22.8225 84.5433 23.0085 83.4422 23.0277 82.2488C22.9989 81.8709 22.9918 81.4861 22.9387 81.1173C22.6749 79.2764 21.9623 78.0608 20.728 77.6356V77.6356ZM21.5109 84.6448C21.2769 86.0772 20.4394 86.7331 19.5161 86.2383C18.9232 85.9199 18.5371 85.264 18.293 84.4234C17.9018 83.0727 17.8219 81.667 18.0751 80.2423C18.2692 79.1527 18.854 78.3502 19.7491 78.5426C20.2984 78.6602 20.727 79.084 21.0465 79.7582C21.4781 80.6676 21.6201 81.709 21.6398 82.8032V83.0269L21.6762 83.0353C21.6231 83.5728 21.5969 84.1195 21.5109 84.6448V84.6448Z" fill="#474D4F"/>
</g>
<defs>
<filter id="filter0_d" x="0" y="0" width="70.1" height="101" filterUnits="userSpaceOnUse" color-interpolation-filters="sRGB">
<feFlood flood-opacity="0" result="BackgroundImageFix"/>
<feColorMatrix in="SourceAlpha" type="matrix" values="0 0 0 0 0 0 0 0 0 0 0 0 0 0 0 0 0 0 127 0"/>
<feOffset dy="4"/>
<feGaussianBlur stdDeviation="2"/>
<feColorMatrix type="matrix" values="0 0 0 0 0 0 0 0 0 0 0 0 0 0 0 0 0 0 0.25 0"/>
<feBlend mode="normal" in2="BackgroundImageFix" result="effect1_dropShadow"/>
<feBlend mode="normal" in="SourceGraphic" in2="effect1_dropShadow" result="shape"/>
</filter>
</defs>
</svg>
