<svg width="86" height="76" viewBox="0 0 86 76" fill="none" xmlns="http://www.w3.org/2000/svg">
<path d="M42.5028 67.0938C42.2206 67.0938 41.9384 67.0047 41.6831 66.8563L39.1031 65.1641C38.7134 64.9266 38.9016 64.8375 39.0359 64.793C39.5466 64.6 39.6541 64.5555 40.205 64.1992C40.2588 64.1696 40.3394 64.1844 40.3931 64.2141L42.3819 65.5203C42.4491 65.5649 42.5566 65.5649 42.6238 65.5203L50.3906 60.5625C50.4578 60.518 50.5116 60.4289 50.5116 60.325V50.4242C50.5116 50.3203 50.4713 50.2313 50.3906 50.1867L42.6238 45.2438C42.5566 45.1992 42.4625 45.1992 42.3819 45.2438L34.615 50.1867C34.5344 50.2313 34.4941 50.3352 34.4941 50.4242V60.325C34.4941 60.4141 34.5478 60.5031 34.615 60.5477L36.7381 61.8985C37.8937 62.5367 38.6059 61.7797 38.6059 61.0375V51.2555C38.6059 51.1219 38.7 51.0031 38.8344 51.0031H39.8153C39.9362 51.0031 40.0438 51.107 40.0438 51.2555V61.0375C40.0438 62.7446 39.2106 63.7094 37.7459 63.7094C37.3025 63.7094 36.9397 63.7094 35.9588 63.175L33.9163 61.8836C33.4191 61.5571 33.0966 60.9633 33.0966 60.325V50.4242C33.0966 49.786 33.4056 49.1774 33.9163 48.8656L41.6831 43.9078C42.1803 43.5961 42.8253 43.5961 43.3091 43.9078L51.0759 48.8656C51.5731 49.1922 51.8956 49.786 51.8956 50.4242V60.325C51.8956 60.9633 51.5866 61.5719 51.0759 61.8836L43.3091 66.8414C43.0806 67.0047 42.7984 67.0938 42.5028 67.0938ZM48.7781 57.3266C48.7781 55.4711 47.6494 54.9813 45.2575 54.625C42.8387 54.2688 42.5969 54.0906 42.5969 53.4672C42.5969 52.9477 42.7984 52.2649 44.5856 52.2649C46.1847 52.2649 46.7759 52.6508 47.0178 53.8383C47.0447 53.9571 47.1253 54.0313 47.2328 54.0313H48.2406C48.3078 54.0313 48.3616 54.0016 48.4019 53.9571C48.4422 53.8977 48.4691 53.8383 48.4556 53.7641C48.2944 51.7156 47.0716 50.7656 44.5856 50.7656C42.3684 50.7656 41.0516 51.8047 41.0516 53.5266C41.0516 55.4117 42.3684 55.9164 44.4916 56.1539C47.0313 56.436 47.2328 56.8367 47.2328 57.386C47.2328 58.3508 46.5341 58.7516 44.8947 58.7516C42.8388 58.7516 42.3819 58.1875 42.2341 57.0594C42.2206 56.9406 42.1266 56.8516 42.0056 56.8516H40.9978C40.8769 56.8516 40.7694 56.9555 40.7694 57.1039C40.7694 58.5438 41.4816 60.2656 44.8813 60.2656C47.3672 60.2656 48.7781 59.1969 48.7781 57.3266ZM56.1016 49.8899C56.1016 50.7953 55.4297 51.5375 54.61 51.5375C53.7903 51.5375 53.1184 50.7953 53.1184 49.8899C53.1184 48.9547 53.8172 48.2422 54.61 48.2422C55.4163 48.2274 56.1016 48.9547 56.1016 49.8899ZM55.8597 49.8899C55.8597 49.118 55.2953 48.5094 54.5966 48.5094C53.9112 48.5094 53.3469 49.118 53.3469 49.8899C53.3469 50.6617 53.9112 51.2852 54.5966 51.2852C55.2953 51.2703 55.8597 50.6469 55.8597 49.8899ZM55.255 50.8102H54.9056C54.8922 50.7211 54.8384 50.2461 54.8384 50.2313C54.8116 50.1274 54.7847 50.068 54.6637 50.068H54.3681V50.8102H54.0456V48.9547H54.6234C54.825 48.9547 55.2147 48.9547 55.2147 49.4445C55.2147 49.786 55.0131 49.8602 54.8922 49.9047C55.1206 49.9196 55.1341 50.0828 55.1744 50.3203C55.1878 50.4688 55.2147 50.7211 55.255 50.8102ZM54.8787 49.5039C54.8787 49.2516 54.7175 49.2516 54.6369 49.2516H54.3681V49.7711H54.6234C54.8384 49.7711 54.8787 49.6078 54.8787 49.5039ZM18.4497 28.3516C18.4497 27.9508 18.2616 27.5945 17.9525 27.4016L9.71531 22.1617C9.58094 22.0727 9.41969 22.0281 9.25844 22.0133H9.17781C9.01656 22.0133 8.86875 22.0727 8.72094 22.1617L0.497188 27.4016C0.188125 27.5945 0 27.9656 0 28.3516L0.0134375 42.4531C0.0134375 42.6461 0.1075 42.8242 0.255313 42.9281C0.403125 43.032 0.59125 43.032 0.7525 42.9281L5.64375 39.8258C5.95281 39.618 6.14094 39.2617 6.14094 38.8758V32.2852C6.14094 31.8992 6.32906 31.5281 6.63813 31.3352L8.72094 30.0141C8.88219 29.9102 9.04344 29.8656 9.21813 29.8656C9.39281 29.8656 9.5675 29.9102 9.71531 30.0141L11.7981 31.3352C12.1072 31.5281 12.2953 31.8992 12.2953 32.2852V38.8758C12.2953 39.2617 12.4834 39.6328 12.7925 39.8258L17.6838 42.9281C17.8316 43.032 18.0331 43.032 18.1809 42.9281C18.3288 42.8391 18.4228 42.6461 18.4228 42.4531L18.4497 28.3516ZM63.4922 12.9586V39.143C63.4922 39.5289 63.3041 39.9 62.995 40.093L54.7578 45.3477C54.4488 45.5406 54.0725 45.5406 53.7634 45.3477L45.5262 40.093C45.2172 39.9 45.0291 39.5289 45.0291 39.143V28.6336C45.0291 28.2477 45.2172 27.8766 45.5262 27.6836L53.7634 22.4289C54.0725 22.236 54.4488 22.236 54.7578 22.4289L56.8138 23.7352C57.0422 23.8836 57.3378 23.6906 57.3378 23.4086V9.45548C57.3378 9.03985 57.7409 8.77267 58.0769 8.98048L62.9816 12.0086C63.2906 12.1867 63.4922 12.5578 63.4922 12.9586ZM57.3109 32.0922C57.3109 31.9883 57.2572 31.8992 57.19 31.8547L54.3681 30.0438C54.2875 29.9992 54.1934 29.9992 54.1128 30.0438L51.2909 31.8547C51.2103 31.8992 51.17 31.9883 51.17 32.0922V35.6992C51.17 35.8031 51.2238 35.8922 51.2909 35.9367L54.1128 37.7328C54.1934 37.7774 54.2875 37.7774 54.3547 37.7328L57.1766 35.9367C57.2572 35.8922 57.2975 35.8031 57.2975 35.6992V32.0922H57.3109ZM85.5028 31.9883C85.8119 31.7953 86 31.4242 86 31.0383V28.5C86 28.1141 85.8119 27.743 85.5028 27.55L77.3194 22.2953C77.0103 22.1024 76.6341 22.1024 76.325 22.2953L68.0878 27.55C67.7788 27.743 67.5906 28.1141 67.5906 28.5V39.0094C67.5906 39.4102 67.7788 39.7664 68.0878 39.9594L76.2712 45.1102C76.5669 45.3031 76.9431 45.3031 77.2522 45.1102L82.1972 42.0672C82.5331 41.8594 82.5331 41.325 82.1972 41.1172L73.9062 35.8625C73.745 35.7586 73.6509 35.5805 73.6509 35.3875V32.0922C73.6509 31.8992 73.745 31.7211 73.9062 31.6172L76.4863 29.9695C76.6341 29.8656 76.8356 29.8656 76.9834 29.9695L79.5634 31.6172C79.7113 31.7211 79.8188 31.8992 79.8188 32.0922V34.675C79.8188 35.0906 80.2353 35.3578 80.5713 35.15L85.5028 31.9883ZM75.1156 32.5078C75.0619 32.5524 75.0216 32.6117 75.0216 32.686V34.7047C75.0216 34.7789 75.0619 34.8531 75.1156 34.8828L76.7012 35.8922C76.755 35.9367 76.8356 35.9367 76.8894 35.8922L78.475 34.8828C78.5288 34.8383 78.5691 34.7789 78.5691 34.7047V32.686C78.5691 32.6117 78.5288 32.5375 78.475 32.5078L76.8894 31.4985C76.8356 31.4539 76.755 31.4539 76.7012 31.4985L75.1156 32.5078ZM40.9575 38.9649V28.5149C40.9575 28.1289 40.7425 27.7578 40.4334 27.5649L32.2231 22.3399C31.9409 22.1617 31.5513 22.132 31.2288 22.3399L23.0184 27.5649C22.7094 27.7578 22.4944 28.1141 22.4944 28.5149V38.9649C22.4944 39.3805 22.7497 39.7367 23.0319 39.9149L31.2556 45.1399C31.5781 45.3477 31.9544 45.3328 32.25 45.1399L40.4469 39.9149C40.6888 39.7664 40.8634 39.5141 40.9306 39.2172C40.9441 39.143 40.9575 39.0539 40.9575 38.9649ZM30.9734 20.425L30.8659 20.4992H31.0138L30.9734 20.425ZM41.2128 39.7516L41.1591 39.6477V39.7813L41.2128 39.7516Z" fill="#474D4F"/>
</svg>
