<svg width="71" height="102" viewBox="0 0 71 102" fill="none" xmlns="http://www.w3.org/2000/svg">
<g filter="url(#filter0_d)">
<path d="M35.05 41.6185C38.1832 41.6185 40.7232 38.5052 40.7232 34.6649C40.7232 30.8245 38.1832 27.7113 35.05 27.7113C31.9168 27.7113 29.3768 30.8245 29.3768 34.6649C29.3768 38.5052 31.9168 41.6185 35.05 41.6185Z" fill="#474D4F"/>
<path d="M35.05 60.2362C39.5031 65.5449 43.8953 68.6852 47.4334 68.6852C48.5924 68.6852 49.6905 68.3861 50.6055 67.7132C53.7776 65.4701 54.9366 59.8624 53.8386 51.862C53.6556 50.4413 53.4116 49.0207 53.1066 47.5253C54.3266 47.0767 55.4247 46.6281 56.5227 46.1795C62.6839 43.2634 66.1 39.2258 66.1 34.8144C66.1 30.3282 62.6839 26.2906 56.5227 23.4494C55.4247 22.926 54.3266 22.4774 53.1066 22.1035C53.4116 20.6081 53.6556 19.1875 53.8386 17.7669C54.8756 9.61693 53.7166 3.93441 50.5445 1.69131C49.6295 1.01838 48.5314 0.719299 47.3724 0.719299C43.8953 0.719299 39.4421 3.85964 34.989 9.16831C30.5969 3.85964 26.2047 0.719299 22.6666 0.719299C21.5076 0.719299 20.4095 1.01838 19.4945 1.69131C16.3224 3.93441 15.1634 9.54216 16.2614 17.5425C16.4444 18.9632 16.6884 20.3838 16.9934 21.8792C15.7734 22.3278 14.6753 22.7764 13.5773 23.2251C7.41611 26.1411 4 30.1787 4 34.5901C4 39.0763 7.41611 43.1139 13.5773 45.9551C14.6753 46.4785 15.7734 46.9272 16.9934 47.301C16.6884 48.7964 16.4444 50.217 16.2614 51.6377C15.2244 59.6381 16.3834 65.3206 19.4945 67.4889C20.4095 68.1618 21.5076 68.4609 22.6666 68.4609C26.2047 68.6105 30.5969 65.4701 35.05 60.2362V60.2362ZM31.6339 50.1423C32.7319 50.217 33.891 50.217 35.05 50.217C36.209 50.217 37.3681 50.217 38.4661 50.1423C37.3681 51.9367 36.209 53.5817 35.05 55.1519C33.891 53.5817 32.7319 51.9367 31.6339 50.1423V50.1423ZM24.0696 42.441C24.6797 43.7121 25.2287 44.9084 25.8997 46.1047C24.0086 45.8056 22.2396 45.4318 20.5315 44.9831C21.0805 42.9643 21.6906 40.8708 22.4226 38.7772C22.9106 39.9735 23.4596 41.2446 24.0696 42.441V42.441ZM20.5315 24.4214C22.2396 23.9728 24.0086 23.5989 25.8997 23.2998C25.2897 24.4962 24.6797 25.6925 24.0696 26.9636C23.4596 28.2347 22.9106 29.431 22.4226 30.7021C21.6296 28.5337 21.0195 26.4402 20.5315 24.4214V24.4214ZM23.8866 34.6649C24.6797 32.6461 25.5337 30.6273 26.5097 28.6085C27.4248 26.6645 28.4618 24.7205 29.4988 22.7764C31.3289 22.6269 33.1589 22.5521 35.05 22.5521C37.0021 22.5521 38.8321 22.6269 40.6012 22.7764C41.6992 24.7205 42.6752 26.6645 43.5903 28.6085C44.5663 30.6273 45.4203 32.6461 46.2134 34.6649C45.4203 36.6837 44.5663 38.7025 43.5903 40.7212C42.6752 42.6653 41.6382 44.6093 40.6012 46.5533C38.7711 46.7029 36.9411 46.7776 35.05 46.7776C33.0979 46.7776 31.2679 46.7029 29.4988 46.5533C28.4008 44.6093 27.4248 42.6653 26.5097 40.7212C25.5337 38.7025 24.6797 36.6837 23.8866 34.6649V34.6649ZM47.7384 30.6273L46.0914 26.8888C45.4813 25.6177 44.9323 24.4214 44.2613 23.2251C46.1524 23.5241 47.9214 23.898 49.6295 24.3466C49.0805 26.4402 48.4704 28.5337 47.7384 30.6273ZM47.7384 38.7025C48.4704 40.796 49.0805 42.8896 49.6295 44.9084C47.9214 45.357 46.1524 45.7308 44.2613 46.0299C44.8713 44.8336 45.4813 43.6373 46.0914 42.3662C46.6404 41.2446 47.1894 39.9736 47.7384 38.7025ZM49.1415 64.6476C48.6534 65.0215 48.0434 65.171 47.3724 65.171C44.3833 65.171 40.6622 62.1802 37.0021 57.694C38.7711 55.3762 40.4792 52.7592 42.1872 49.8432C45.0543 49.5441 47.7994 49.0207 50.3615 48.273C50.6665 49.6189 50.8495 50.9647 51.0325 52.3106C51.8865 58.666 51.2155 63.227 49.1415 64.6476V64.6476ZM52.3136 25.2439C59.1458 27.6365 63.2329 31.3002 63.2329 34.6649C63.2329 37.5809 60.4268 40.4969 55.4857 42.8148C54.5096 43.2634 53.4116 43.712 52.3136 44.0859C51.5205 41.0203 50.5445 37.88 49.3245 34.6649C50.5445 31.4498 51.5815 28.3094 52.3136 25.2439ZM47.4334 4.15872C48.1044 4.15872 48.6534 4.30826 49.2025 4.68211C51.2155 6.10274 51.9475 10.5889 51.0935 17.0192C50.9105 18.2902 50.6665 19.6361 50.4225 21.0567C47.8604 20.3838 45.1153 19.8604 42.2482 19.4866C40.6012 16.5705 38.8321 13.9536 37.0631 11.6357C40.7232 7.22429 44.4443 4.15872 47.4334 4.15872V4.15872ZM38.4661 19.1875C37.3681 19.1127 36.209 19.1127 35.05 19.1127C33.891 19.1127 32.7319 19.1127 31.6339 19.1875C32.7319 17.393 33.891 15.7481 35.05 14.1779C36.209 15.7481 37.3681 17.4678 38.4661 19.1875ZM20.9585 4.68211C21.4466 4.30826 22.0566 4.15872 22.7276 4.15872C25.7167 4.15872 29.4378 7.14952 33.0979 11.6357C31.3289 13.9536 29.6208 16.5705 27.9128 19.4866C25.0457 19.7856 22.3006 20.309 19.7385 21.0567C19.4335 19.7109 19.2505 18.365 19.0675 17.0192C18.2135 10.6637 18.8845 6.17751 20.9585 4.68211V4.68211ZM17.7864 44.0859C10.9542 41.6933 6.86709 38.0295 6.86709 34.6649C6.86709 31.7488 9.67318 28.8328 14.6143 26.5149C15.5904 26.0663 16.6884 25.6177 17.7864 25.2439C18.5795 28.3094 19.5555 31.4498 20.7755 34.6649C19.5555 37.88 18.5185 41.0951 17.7864 44.0859ZM19.0675 52.3106C19.2505 51.0395 19.4945 49.6936 19.7385 48.273C22.3006 48.9459 25.0457 49.4693 27.9128 49.8432C29.5598 52.7592 31.3289 55.3762 33.0979 57.694C29.4378 62.1055 25.7167 65.171 22.7276 65.171C22.0566 65.171 21.5076 65.0215 20.9585 64.6476C18.8845 63.227 18.2135 58.666 19.0675 52.3106V52.3106ZM16.5054 83.1158C17.8474 81.0971 17.9084 78.8539 17.1764 76.6108C16.4444 74.3677 14.9194 73.321 13.0283 73.2462C10.7712 73.1714 8.45314 73.2462 6.19607 73.2462H5.76906V92.6116H7.59912V85.2842H10.4662C10.8322 85.2842 11.1372 85.4337 11.3202 85.8076L14.9804 92.7612C15.0414 92.9107 15.2244 93.135 15.3464 93.135H17.7254C16.2614 90.3685 14.8583 87.7516 13.3943 85.0599C14.6753 84.8355 15.7734 84.3122 16.5054 83.1158V83.1158ZM7.59912 82.9663V75.5641H8.27014C9.67318 75.5641 11.1372 75.4893 12.5403 75.6388C14.1873 75.7136 15.3464 77.2838 15.3464 79.3026C15.3464 81.3214 14.0043 82.8915 12.3573 82.9663C10.8932 83.0411 9.42917 82.9663 7.59912 82.9663V82.9663ZM31.2069 83.9383C30.2308 78.7044 26.3267 77.3586 23.3376 79.0035C21.0195 80.2746 19.9825 82.742 19.9215 85.8076C19.8605 88.1254 20.4095 90.219 21.8736 91.7892C23.5206 93.5836 25.5337 93.8079 27.6078 93.3593C28.7668 93.0602 29.8038 92.3873 30.5969 91.3405C30.2918 90.8171 29.9868 90.2938 29.6818 89.8451C27.9738 91.6396 26.0827 92.2378 24.0086 91.0415C22.6666 90.219 21.9956 88.2002 21.8736 86.7048H31.3289V85.7328C31.3899 85.0599 31.3289 84.4617 31.2069 83.9383V83.9383ZM21.9956 85.1346C21.8126 82.8915 23.6426 80.4989 25.6557 80.4989C27.9738 80.4241 29.4378 82.1438 29.4988 85.1346H21.9956V85.1346ZM40.7232 78.6296C39.8082 78.4053 38.8321 78.3306 37.9171 78.4053C36.453 78.5549 35.172 79.3773 34.135 80.7232C34.44 81.2466 34.684 81.77 35.05 82.3681C35.172 82.2186 35.294 82.0691 35.416 81.9943C36.392 80.8727 37.5511 80.2746 38.9541 80.4241C40.0522 80.4989 41.0892 80.9475 41.3942 82.2934C41.6382 83.3401 41.5772 84.4617 41.6382 85.5832C41.4552 85.5832 41.3942 85.5085 41.3332 85.4337C39.8692 83.9383 38.2221 83.6392 36.453 84.1626C34.806 84.686 33.769 86.2562 33.647 88.275C33.5249 90.5928 34.379 92.3125 36.026 93.135C37.0631 93.6584 38.2221 93.6584 39.3201 93.3593C40.1742 93.135 40.5402 92.5369 41.7602 91.7144V92.6864H43.4683C43.4683 89.6956 43.5293 86.0319 43.4683 82.5924C43.4683 80.4241 42.4312 79.0783 40.7232 78.6296ZM41.5772 88.0507C41.5162 88.275 41.5772 88.4993 41.5772 88.7236C41.5772 90.2938 41.2722 90.8171 40.0522 91.4153C39.1981 91.7892 38.2831 91.9387 37.3681 91.5648C36.331 91.191 35.599 90.0694 35.599 88.7984C35.538 87.5273 36.209 86.2562 37.2461 85.8823C38.6491 85.2842 39.9302 85.658 41.0892 86.7048C41.4552 87.0786 41.6992 87.4525 41.5772 88.0507V88.0507ZM51.0935 80.6484C52.6796 80.0503 54.1436 80.4241 55.2416 82.0691L55.4247 82.2186C55.8517 81.77 56.2177 81.3214 56.7057 80.798C56.5227 80.5737 56.4617 80.4241 56.3397 80.1998C54.5706 77.8819 51.0935 77.5829 48.9584 79.4521C45.9694 82.1438 46.0304 87.3777 47.4944 90.1442C48.8974 92.7612 50.9105 93.6584 53.2896 93.2846C54.6926 93.0602 55.8517 92.2378 56.7667 90.8171C56.3397 90.3685 55.9127 89.9199 55.4857 89.3965C55.3637 89.5461 55.3027 89.6208 55.2416 89.7704C53.5946 92.0135 50.8495 91.7892 49.3855 89.3965C48.5314 87.9759 48.3484 86.3309 48.5924 84.686C48.7144 82.8168 49.5075 81.3214 51.0935 80.6484ZM63.7819 90.8171C63.6599 90.8919 63.5989 90.9667 63.5989 90.9667C63.1109 91.4153 62.6229 91.4901 62.0739 91.2658C61.5249 90.9667 61.4638 90.3685 61.4028 89.7704V81.2466C61.4028 81.0971 61.4028 81.3961 61.4639 80.6484H63.7819V78.4053H61.3418V74.6668H59.5118V78.7044H57.9257C57.8037 78.7044 57.6207 78.854 57.6207 79.0035C57.5597 79.5269 57.6207 79.9007 57.6207 80.6484H59.5728V90.219C59.5728 91.4153 59.8168 92.4621 60.6708 93.0602C61.5859 93.7332 63.3549 93.5836 64.1479 92.7612C64.2699 92.6864 64.3309 92.3873 64.3309 92.3125C64.1479 91.8639 63.9649 91.3405 63.7819 90.8171V90.8171Z" fill="#474D4F"/>
</g>
<defs>
<filter id="filter0_d" x="0" y="0.719299" width="70.1" height="100.842" filterUnits="userSpaceOnUse" color-interpolation-filters="sRGB">
<feFlood flood-opacity="0" result="BackgroundImageFix"/>
<feColorMatrix in="SourceAlpha" type="matrix" values="0 0 0 0 0 0 0 0 0 0 0 0 0 0 0 0 0 0 127 0"/>
<feOffset dy="4"/>
<feGaussianBlur stdDeviation="2"/>
<feColorMatrix type="matrix" values="0 0 0 0 0 0 0 0 0 0 0 0 0 0 0 0 0 0 0.25 0"/>
<feBlend mode="normal" in2="BackgroundImageFix" result="effect1_dropShadow"/>
<feBlend mode="normal" in="SourceGraphic" in2="effect1_dropShadow" result="shape"/>
</filter>
</defs>
</svg>
