<svg width="63" height="94" viewBox="0 0 63 94" fill="none" xmlns="http://www.w3.org/2000/svg">
<path d="M31.05 41.6185C34.1832 41.6185 36.7232 38.5052 36.7232 34.6649C36.7232 30.8245 34.1832 27.7113 31.05 27.7113C27.9168 27.7113 25.3768 30.8245 25.3768 34.6649C25.3768 38.5052 27.9168 41.6185 31.05 41.6185Z" fill="#474D4F"/>
<path d="M31.05 60.2362C35.5031 65.5449 39.8953 68.6852 43.4334 68.6852C44.5924 68.6852 45.6905 68.3861 46.6055 67.7132C49.7776 65.4701 50.9366 59.8624 49.8386 51.862C49.6556 50.4413 49.4116 49.0207 49.1066 47.5253C50.3266 47.0767 51.4247 46.6281 52.5227 46.1795C58.6839 43.2634 62.1 39.2258 62.1 34.8144C62.1 30.3282 58.6839 26.2906 52.5227 23.4494C51.4247 22.926 50.3266 22.4774 49.1066 22.1035C49.4116 20.6081 49.6556 19.1875 49.8386 17.7669C50.8756 9.61693 49.7166 3.93441 46.5445 1.69131C45.6295 1.01838 44.5314 0.719299 43.3724 0.719299C39.8953 0.719299 35.4421 3.85964 30.989 9.16831C26.5969 3.85964 22.2047 0.719299 18.6666 0.719299C17.5076 0.719299 16.4095 1.01838 15.4945 1.69131C12.3224 3.93441 11.1634 9.54216 12.2614 17.5425C12.4444 18.9632 12.6884 20.3838 12.9934 21.8792C11.7734 22.3278 10.6753 22.7764 9.57731 23.2251C3.41611 26.1411 0 30.1787 0 34.5901C0 39.0763 3.41611 43.1139 9.57731 45.9551C10.6753 46.4785 11.7734 46.9272 12.9934 47.301C12.6884 48.7964 12.4444 50.217 12.2614 51.6377C11.2244 59.6381 12.3834 65.3206 15.4945 67.4889C16.4095 68.1618 17.5076 68.4609 18.6666 68.4609C22.2047 68.6105 26.5969 65.4701 31.05 60.2362ZM27.6339 50.1423C28.7319 50.217 29.891 50.217 31.05 50.217C32.209 50.217 33.3681 50.217 34.4661 50.1423C33.3681 51.9367 32.209 53.5817 31.05 55.1519C29.891 53.5817 28.7319 51.9367 27.6339 50.1423ZM20.0696 42.441C20.6797 43.7121 21.2287 44.9084 21.8997 46.1047C20.0086 45.8056 18.2396 45.4318 16.5315 44.9831C17.0805 42.9643 17.6906 40.8708 18.4226 38.7772C18.9106 39.9735 19.4596 41.2446 20.0696 42.441ZM16.5315 24.4214C18.2396 23.9728 20.0086 23.5989 21.8997 23.2998C21.2897 24.4962 20.6797 25.6925 20.0696 26.9636C19.4596 28.2347 18.9106 29.431 18.4226 30.7021C17.6296 28.5337 17.0195 26.4402 16.5315 24.4214ZM19.8866 34.6649C20.6797 32.6461 21.5337 30.6273 22.5097 28.6085C23.4248 26.6645 24.4618 24.7205 25.4988 22.7764C27.3289 22.6269 29.1589 22.5521 31.05 22.5521C33.0021 22.5521 34.8321 22.6269 36.6012 22.7764C37.6992 24.7205 38.6752 26.6645 39.5903 28.6085C40.5663 30.6273 41.4203 32.6461 42.2134 34.6649C41.4203 36.6837 40.5663 38.7025 39.5903 40.7212C38.6752 42.6653 37.6382 44.6093 36.6012 46.5533C34.7711 46.7029 32.9411 46.7776 31.05 46.7776C29.0979 46.7776 27.2679 46.7029 25.4988 46.5533C24.4008 44.6093 23.4248 42.6653 22.5097 40.7212C21.5337 38.7025 20.6797 36.6837 19.8866 34.6649ZM43.7384 30.6273L42.0914 26.8888C41.4813 25.6177 40.9323 24.4214 40.2613 23.2251C42.1524 23.5241 43.9214 23.898 45.6295 24.3466C45.0805 26.4402 44.4704 28.5337 43.7384 30.6273ZM43.7384 38.7025C44.4704 40.796 45.0805 42.8896 45.6295 44.9084C43.9214 45.357 42.1524 45.7308 40.2613 46.0299C40.8713 44.8336 41.4813 43.6373 42.0914 42.3662C42.6404 41.2446 43.1894 39.9735 43.7384 38.7025ZM45.1415 64.6476C44.6534 65.0215 44.0434 65.171 43.3724 65.171C40.3833 65.171 36.6622 62.1802 33.0021 57.694C34.7711 55.3762 36.4792 52.7592 38.1872 49.8432C41.0543 49.5441 43.7994 49.0207 46.3615 48.273C46.6665 49.6189 46.8495 50.9647 47.0325 52.3106C47.8865 58.666 47.2155 63.227 45.1415 64.6476ZM48.3136 25.2439C55.1458 27.6365 59.2329 31.3002 59.2329 34.6649C59.2329 37.5809 56.4268 40.4969 51.4857 42.8148C50.5096 43.2634 49.4116 43.712 48.3136 44.0859C47.5205 41.0203 46.5445 37.88 45.3245 34.6649C46.5445 31.4498 47.5815 28.3094 48.3136 25.2439ZM43.4334 4.15872C44.1044 4.15872 44.6534 4.30826 45.2025 4.68211C47.2155 6.10274 47.9475 10.5889 47.0935 17.0192C46.9105 18.2902 46.6665 19.6361 46.4225 21.0567C43.8604 20.3838 41.1153 19.8604 38.2482 19.4866C36.6012 16.5705 34.8321 13.9536 33.0631 11.6357C36.7232 7.22429 40.4443 4.15872 43.4334 4.15872ZM34.4661 19.1875C33.3681 19.1127 32.209 19.1127 31.05 19.1127C29.891 19.1127 28.7319 19.1127 27.6339 19.1875C28.7319 17.393 29.891 15.7481 31.05 14.1779C32.209 15.7481 33.3681 17.4678 34.4661 19.1875ZM16.9585 4.68211C17.4466 4.30826 18.0566 4.15872 18.7276 4.15872C21.7167 4.15872 25.4378 7.14952 29.0979 11.6357C27.3289 13.9536 25.6208 16.5705 23.9128 19.4866C21.0457 19.7856 18.3006 20.309 15.7385 21.0567C15.4335 19.7109 15.2505 18.365 15.0675 17.0192C14.2135 10.6637 14.8845 6.17751 16.9585 4.68211ZM13.7864 44.0859C6.95422 41.6933 2.86709 38.0295 2.86709 34.6649C2.86709 31.7488 5.67318 28.8328 10.6143 26.5149C11.5904 26.0663 12.6884 25.6177 13.7864 25.2439C14.5795 28.3094 15.5555 31.4498 16.7755 34.6649C15.5555 37.88 14.5185 41.0951 13.7864 44.0859ZM15.0675 52.3106C15.2505 51.0395 15.4945 49.6936 15.7385 48.273C18.3006 48.9459 21.0457 49.4693 23.9128 49.8432C25.5598 52.7592 27.3289 55.3762 29.0979 57.694C25.4378 62.1055 21.7167 65.171 18.7276 65.171C18.0566 65.171 17.5076 65.0215 16.9585 64.6476C14.8845 63.227 14.2135 58.666 15.0675 52.3106ZM12.5054 83.1158C13.8474 81.0971 13.9084 78.854 13.1764 76.6108C12.4444 74.3677 10.9194 73.321 9.02829 73.2462C6.77122 73.1714 4.45314 73.2462 2.19607 73.2462H1.76906V92.6116H3.59912V85.2842H6.46621C6.83222 85.2842 7.13723 85.4337 7.32024 85.8076L10.9804 92.7612C11.0414 92.9107 11.2244 93.135 11.3464 93.135H13.7254C12.2614 90.3685 10.8583 87.7516 9.3943 85.0599C10.6753 84.8355 11.7734 84.3122 12.5054 83.1158ZM3.59912 82.9663V75.5641H4.27014C5.67318 75.5641 7.13723 75.4893 8.54027 75.6388C10.1873 75.7136 11.3464 77.2838 11.3464 79.3026C11.3464 81.3214 10.0043 82.8915 8.35727 82.9663C6.89322 83.0411 5.42917 82.9663 3.59912 82.9663ZM27.2069 83.9383C26.2308 78.7044 22.3267 77.3586 19.3376 79.0035C17.0195 80.2746 15.9825 82.742 15.9215 85.8076C15.8605 88.1254 16.4095 90.219 17.8736 91.7892C19.5206 93.5836 21.5337 93.8079 23.6078 93.3593C24.7668 93.0602 25.8038 92.3873 26.5969 91.3405C26.2918 90.8171 25.9868 90.2938 25.6818 89.8451C23.9738 91.6396 22.0827 92.2378 20.0086 91.0415C18.6666 90.219 17.9956 88.2002 17.8736 86.7048H27.3289V85.7328C27.3899 85.0599 27.3289 84.4617 27.2069 83.9383ZM17.9956 85.1346C17.8126 82.8915 19.6426 80.4989 21.6557 80.4989C23.9738 80.4241 25.4378 82.1438 25.4988 85.1346H17.9956ZM36.7232 78.6296C35.8082 78.4053 34.8321 78.3306 33.9171 78.4053C32.453 78.5549 31.172 79.3773 30.135 80.7232C30.44 81.2466 30.684 81.77 31.05 82.3681C31.172 82.2186 31.294 82.0691 31.416 81.9943C32.392 80.8727 33.5511 80.2746 34.9541 80.4241C36.0522 80.4989 37.0892 80.9475 37.3942 82.2934C37.6382 83.3401 37.5772 84.4617 37.6382 85.5832C37.4552 85.5832 37.3942 85.5085 37.3332 85.4337C35.8692 83.9383 34.2221 83.6392 32.453 84.1626C30.806 84.686 29.769 86.2562 29.647 88.275C29.5249 90.5928 30.379 92.3125 32.026 93.135C33.0631 93.6584 34.2221 93.6584 35.3201 93.3593C36.1742 93.135 36.5402 92.5369 37.7602 91.7144V92.6864H39.4683C39.4683 89.6956 39.5293 86.0319 39.4683 82.5924C39.4683 80.4241 38.4312 79.0783 36.7232 78.6296ZM37.5772 88.0507C37.5162 88.275 37.5772 88.4993 37.5772 88.7236C37.5772 90.2938 37.2722 90.8171 36.0522 91.4153C35.1981 91.7892 34.2831 91.9387 33.3681 91.5648C32.331 91.191 31.599 90.0695 31.599 88.7984C31.538 87.5273 32.209 86.2562 33.2461 85.8823C34.6491 85.2842 35.9302 85.658 37.0892 86.7048C37.4552 87.0786 37.6992 87.4525 37.5772 88.0507ZM47.0935 80.6484C48.6796 80.0503 50.1436 80.4241 51.2416 82.0691L51.4247 82.2186C51.8517 81.77 52.2177 81.3214 52.7057 80.798C52.5227 80.5737 52.4617 80.4241 52.3397 80.1998C50.5706 77.8819 47.0935 77.5829 44.9585 79.4521C41.9694 82.1438 42.0304 87.3777 43.4944 90.1442C44.8974 92.7612 46.9105 93.6584 49.2896 93.2846C50.6926 93.0602 51.8517 92.2378 52.7667 90.8171C52.3397 90.3685 51.9127 89.9199 51.4857 89.3965C51.3637 89.5461 51.3027 89.6208 51.2416 89.7704C49.5946 92.0135 46.8495 91.7892 45.3855 89.3965C44.5314 87.9759 44.3484 86.3309 44.5924 84.686C44.7144 82.8168 45.5075 81.3214 47.0935 80.6484ZM59.7819 90.8171C59.6599 90.8919 59.5989 90.9667 59.5989 90.9667C59.1109 91.4153 58.6229 91.4901 58.0739 91.2658C57.5249 90.9667 57.4638 90.3685 57.4028 89.7704V81.2466C57.4028 81.0971 57.4029 81.3961 57.4639 80.6484H59.7819V78.4053H57.3418V74.6668H55.5118V78.7044H53.9257C53.8037 78.7044 53.6207 78.854 53.6207 79.0035C53.5597 79.5269 53.6207 79.9007 53.6207 80.6484H55.5728V90.219C55.5728 91.4153 55.8168 92.4621 56.6708 93.0602C57.5859 93.7332 59.3549 93.5836 60.1479 92.7612C60.2699 92.6864 60.3309 92.3873 60.3309 92.3125C60.1479 91.8639 59.9649 91.3405 59.7819 90.8171Z" fill="#474D4F"/>
</svg>
