<svg width="61" height="56" viewBox="0 0 61 56" fill="none" xmlns="http://www.w3.org/2000/svg">
<path d="M20.403 45.018C20.403 45.2445 20.1202 45.4258 19.7635 45.4258C19.3577 45.4598 19.0748 45.2785 19.0748 45.018C19.0748 44.7914 19.3577 44.6102 19.7143 44.6102C20.0833 44.5762 20.403 44.7574 20.403 45.018ZM16.5782 44.5082C16.4921 44.7348 16.7381 44.9953 17.1071 45.0633C17.4268 45.1766 17.7958 45.0633 17.8696 44.8367C17.9433 44.6102 17.7097 44.3496 17.3407 44.2477C17.021 44.1684 16.6643 44.2816 16.5782 44.5082ZM22.0141 44.3156C21.6575 44.3949 21.4115 44.6102 21.4484 44.8707C21.4853 45.0973 21.805 45.2445 22.174 45.1652C22.5306 45.0859 22.7766 44.8707 22.7397 44.6441C22.7028 44.4289 22.3708 44.2816 22.0141 44.3156ZM30.1065 0.90625C13.0486 0.90625 0 12.8348 0 28.5469C0 41.1098 8.58427 51.8602 20.8458 55.6438C22.42 55.9043 22.9734 55.0094 22.9734 54.273C22.9734 53.5707 22.9365 49.6965 22.9365 47.3176C22.9365 47.3176 14.3276 49.0168 12.5198 43.9418C12.5198 43.9418 11.1177 40.6453 9.10081 39.7957C9.10081 39.7957 6.28448 38.0172 9.29758 38.0512C9.29758 38.0512 12.3599 38.2777 14.0448 40.9738C16.7381 45.3465 21.2516 44.0891 23.0103 43.3414C23.2931 41.5289 24.0925 40.2715 24.978 39.5238C18.1032 38.8215 11.1669 37.9039 11.1669 27.0062C11.1669 23.891 12.1016 22.3277 14.0694 20.334C13.7496 19.5977 12.7042 16.5617 14.3891 12.6422C16.9595 11.9059 22.875 15.7008 22.875 15.7008C25.3347 15.0664 27.9788 14.7379 30.5984 14.7379C33.2179 14.7379 35.8621 15.0664 38.3218 15.7008C38.3218 15.7008 44.2373 11.8945 46.8077 12.6422C48.4925 16.573 47.4472 19.5977 47.1274 20.334C49.0952 22.3391 50.3004 23.9023 50.3004 27.0062C50.3004 37.9379 43.0567 38.8102 36.1819 39.5238C37.3133 40.4187 38.2726 42.118 38.2726 44.7801C38.2726 48.5977 38.2357 53.3215 38.2357 54.2504C38.2357 54.9867 38.8014 55.8816 40.3633 55.6211C52.6617 51.8602 61 41.1098 61 28.5469C61 12.8348 47.1643 0.90625 30.1065 0.90625ZM11.954 39.977C11.7942 40.0902 11.831 40.3508 12.0401 40.566C12.2369 40.7473 12.5198 40.8266 12.6796 40.6793C12.8395 40.566 12.8026 40.3055 12.5935 40.0902C12.3968 39.909 12.1139 39.8297 11.954 39.977ZM10.6258 39.0594C10.5397 39.2066 10.6627 39.3879 10.9087 39.5012C11.1054 39.6145 11.3514 39.5805 11.4375 39.4219C11.5236 39.2746 11.4006 39.0934 11.1546 38.9801C10.9087 38.9121 10.7119 38.9461 10.6258 39.0594ZM14.6105 43.0922C14.4137 43.2395 14.4875 43.5793 14.7704 43.7945C15.0532 44.0551 15.4099 44.0891 15.5698 43.9078C15.7296 43.7605 15.6558 43.4207 15.4099 43.2055C15.1393 42.9449 14.7704 42.9109 14.6105 43.0922ZM13.2085 41.427C13.0117 41.5402 13.0117 41.8348 13.2085 42.0953C13.4052 42.3559 13.7373 42.4691 13.8972 42.3559C14.094 42.2086 14.094 41.9141 13.8972 41.6535C13.725 41.393 13.4052 41.2797 13.2085 41.427Z" fill="#F0F0F0"/>
</svg>
