<svg width="61" height="59" viewBox="0 0 61 59" fill="none" xmlns="http://www.w3.org/2000/svg">
<g clip-path="url(#clip0)">
<path d="M30.4999 0.000488281C13.6552 0.000488281 0 13.1587 0 29.3904C0 45.6221 13.6552 58.7803 30.4999 58.7803C47.3447 58.7803 61 45.6221 61 29.3904C60.9999 13.1587 47.3445 0.000488281 30.4999 0.000488281ZM22.3625 43.5991H15.6659V22.7518H22.3625V43.5991ZM18.9823 20.0216C16.7953 20.0216 15.0223 18.2993 15.0223 16.175C15.0223 14.0504 16.7955 12.3281 18.9823 12.3281C21.1691 12.3281 22.9421 14.0504 22.9421 16.175C22.9422 18.2994 21.1692 20.0216 18.9823 20.0216ZM47.4579 43.5991H40.7938V32.656C40.7938 29.6546 39.6107 27.9792 37.1478 27.9792C34.4673 27.9792 33.067 29.7241 33.067 32.656V43.5991H26.6442V22.7518H33.067V25.5595C33.067 25.5595 34.9989 22.1159 39.5864 22.1159C44.174 22.1159 47.458 24.815 47.458 30.3989L47.4579 43.5991Z" fill="#F0F0F0"/>
</g>
<defs>
<clipPath id="clip0">
<rect width="61" height="58.78" fill="white"/>
</clipPath>
</defs>
</svg>
