<svg width="100" height="98" viewBox="0 0 100 98" fill="none" xmlns="http://www.w3.org/2000/svg">
<path d="M33.4476 76.0648C33.4476 76.4477 32.9839 76.7539 32.3992 76.7539C31.7339 76.8113 31.2702 76.5051 31.2702 76.0648C31.2702 75.682 31.7339 75.3758 32.3185 75.3758C32.9234 75.3184 33.4476 75.6246 33.4476 76.0648ZM27.1774 75.2035C27.0363 75.5863 27.4395 76.0266 28.0444 76.1414C28.5685 76.3328 29.1734 76.1414 29.2944 75.7586C29.4153 75.3758 29.0323 74.9356 28.4274 74.7633C27.9032 74.6293 27.3185 74.8207 27.1774 75.2035ZM36.0887 74.8781C35.504 75.0121 35.1008 75.3758 35.1613 75.816C35.2218 76.1988 35.746 76.4477 36.3508 76.3137C36.9355 76.1797 37.3387 75.816 37.2782 75.4332C37.2177 75.0695 36.6734 74.8207 36.0887 74.8781ZM49.3548 1.53125C21.3911 1.53125 0 21.6863 0 48.2344C0 69.4613 14.0726 87.6258 34.1734 94.0188C36.754 94.459 37.6613 92.9469 37.6613 91.7027C37.6613 90.516 37.6008 83.9699 37.6008 79.9504C37.6008 79.9504 23.4879 82.8215 20.5242 74.2465C20.5242 74.2465 18.2258 68.6766 14.9194 67.241C14.9194 67.241 10.3024 64.2359 15.2419 64.2934C15.2419 64.2934 20.2621 64.6762 23.0242 69.2316C27.4395 76.6199 34.8387 74.4953 37.7218 73.232C38.1855 70.1695 39.496 68.0449 40.9476 66.7816C29.6774 65.5949 18.3065 64.0445 18.3065 45.6313C18.3065 40.3676 19.8387 37.7262 23.0645 34.3574C22.5403 33.1133 20.8266 27.9836 23.5887 21.3609C27.8024 20.1168 37.5 26.5289 37.5 26.5289C41.5323 25.457 45.8669 24.902 50.1613 24.902C54.4556 24.902 58.7903 25.457 62.8226 26.5289C62.8226 26.5289 72.5202 20.0977 76.7339 21.3609C79.496 28.0027 77.7823 33.1133 77.2581 34.3574C80.4839 37.7453 82.4597 40.3867 82.4597 45.6313C82.4597 64.102 70.5847 65.5758 59.3145 66.7816C61.1694 68.2938 62.7419 71.1648 62.7419 75.6629C62.7419 82.1133 62.6815 90.0949 62.6815 91.6645C62.6815 92.9086 63.6089 94.4207 66.1694 93.9805C86.3306 87.6258 100 69.4613 100 48.2344C100 21.6863 77.3185 1.53125 49.3548 1.53125ZM19.5968 67.5473C19.3347 67.7387 19.3952 68.1789 19.7379 68.5426C20.0605 68.8488 20.5242 68.9828 20.7863 68.734C21.0484 68.5426 20.9879 68.1023 20.6452 67.7387C20.3226 67.4324 19.8589 67.2984 19.5968 67.5473ZM17.4194 65.9969C17.2782 66.2457 17.4798 66.552 17.8831 66.7434C18.2056 66.9348 18.6089 66.8773 18.75 66.6094C18.8911 66.3606 18.6895 66.0543 18.2863 65.8629C17.8831 65.7481 17.5605 65.8055 17.4194 65.9969ZM23.9516 72.8109C23.629 73.0598 23.75 73.634 24.2137 73.9977C24.6774 74.4379 25.2621 74.4953 25.5242 74.1891C25.7863 73.9402 25.6653 73.366 25.2621 73.0023C24.8185 72.5621 24.2137 72.5047 23.9516 72.8109ZM21.6532 69.9973C21.3306 70.1887 21.3306 70.6863 21.6532 71.1266C21.9758 71.5668 22.5202 71.7582 22.7823 71.5668C23.1048 71.318 23.1048 70.8203 22.7823 70.3801C22.5 69.9399 21.9758 69.7484 21.6532 69.9973Z" fill="#474D4F"/>
</svg>
