<svg width="100" height="98" viewBox="0 0 100 98" fill="none" xmlns="http://www.w3.org/2000/svg">
<path d="M92.8572 73.3409C92.8572 74.4148 92.6543 75.8168 92.2486 77.5469C91.8429 79.277 91.4168 80.6392 90.9702 81.6335C90.118 83.6222 87.6423 85.7301 83.5432 87.9574C79.7282 89.9858 75.9538 91 72.22 91C71.1242 91 70.0589 90.9304 69.024 90.7912C67.989 90.652 66.8223 90.4034 65.5236 90.0455C64.2249 89.6875 63.261 89.3991 62.6319 89.1804C62.0029 88.9617 60.8766 88.554 59.2532 87.9574C57.6299 87.3608 56.6356 87.0028 56.2703 86.8835C52.293 85.4915 48.7419 83.8409 45.6169 81.9318C40.4221 78.7898 35.0548 74.5043 29.515 69.0753C23.9753 63.6463 19.6023 58.3864 16.3961 53.2955C14.4481 50.2329 12.7638 46.7528 11.3434 42.8551C11.2216 42.4972 10.8563 41.5227 10.2476 39.9318C9.63882 38.3409 9.22283 37.2372 8.99962 36.6207C8.77643 36.0043 8.48219 35.0597 8.11691 33.7869C7.75163 32.5142 7.49797 31.3707 7.35595 30.3565C7.21391 29.3423 7.14288 28.2983 7.14288 27.2244C7.14288 23.5653 8.17779 19.8665 10.2476 16.1278C12.5203 12.1108 14.6713 9.68466 16.7005 8.84943C17.7151 8.41193 19.1051 7.99432 20.8705 7.59659C22.636 7.19886 24.0666 7 25.1624 7C25.7306 7 26.1567 7.05966 26.4407 7.17899C27.1713 7.41764 28.2468 8.92901 29.6672 11.7131C30.1134 12.4688 30.7222 13.5426 31.4935 14.9347C32.2646 16.3267 32.9749 17.5895 33.6242 18.723C34.2736 19.8565 34.9026 20.9205 35.5114 21.9148C35.6333 22.0739 35.9884 22.571 36.5767 23.4063C37.1652 24.2415 37.6015 24.9475 37.8856 25.5242C38.1699 26.1009 38.312 26.6676 38.312 27.2244C38.312 28.0199 37.7337 29.0142 36.577 30.2074C35.4204 31.4006 34.1622 32.4943 32.8027 33.4887C31.4431 34.483 30.185 35.5369 29.0283 36.6506C27.8716 37.7642 27.2933 38.679 27.2933 39.3949C27.2933 39.7528 27.3947 40.2003 27.5976 40.7372C27.8005 41.2742 27.9728 41.6818 28.1147 41.9602C28.2566 42.2387 28.5407 42.7159 28.967 43.3921C29.3932 44.0682 29.6265 44.446 29.667 44.5256C32.7515 49.9744 36.2823 54.6477 40.2595 58.5455C44.2368 62.4432 49.0055 65.9034 54.5655 68.9262C54.6465 68.9658 55.032 69.1945 55.7222 69.6122C56.4121 70.0298 56.8991 70.3082 57.1832 70.4474C57.4675 70.5867 57.8835 70.7557 58.4312 70.9545C58.9791 71.1534 59.4357 71.2528 59.801 71.2528C60.5315 71.2528 61.4649 70.686 62.6012 69.5525C63.7376 68.419 64.8131 67.186 65.8277 65.8537C66.8424 64.5213 67.9584 63.2883 69.176 62.1548C70.3935 61.0213 71.4081 60.4545 72.2198 60.4545C72.788 60.4545 73.3663 60.5937 73.9547 60.8721C74.5432 61.1505 75.2636 61.5781 76.1159 62.1548C76.9682 62.7315 77.4755 63.0795 77.6378 63.1988C78.6524 63.7954 79.738 64.4119 80.8947 65.0483C82.0513 65.6846 83.3399 66.3806 84.7604 67.1363C86.1808 67.892 87.2766 68.4886 88.0477 68.9261C90.8886 70.3181 92.4308 71.3721 92.6743 72.088C92.7962 72.3664 92.8572 72.7841 92.8572 73.3409V73.3409Z" fill="#EFB560"/>
</svg>
